<svg xmlns="http://www.w3.org/2000/svg" xmlns:xlink="http://www.w3.org/1999/xlink" width="1080" zoomAndPan="magnify" viewBox="0 0 810 809.999993" height="1080" preserveAspectRatio="xMidYMid meet" version="1.0"><defs><clipPath id="00e19b8c59"><path d="M 0 35.101562 L 810 35.101562 L 810 774.601562 L 0 774.601562 Z M 0 35.101562 " clip-rule="nonzero"/></clipPath></defs><path stroke-linecap="butt" transform="matrix(0.271835, -0.699003, 0.699003, 0.271835, 380.734993, 465.547845)" fill="none" stroke-linejoin="miter" d="M 0.00198481 1.99896 L 27.809219 1.998421 " stroke="#4b5bab" stroke-width="4" stroke-opacity="1" stroke-miterlimit="4"/><path fill="#f7c92e" d="M 440.101562 88 L 405 52.914062 L 369.898438 88 L 369.898438 123.355469 L 334.53125 158.441406 L 334.53125 193.527344 L 299.429688 228.882812 L 299.429688 263.96875 L 264.0625 299.324219 L 52.921875 299.324219 L 17.554688 334.410156 L 88.023438 404.851562 L 123.394531 404.851562 L 228.960938 510.378906 L 193.59375 545.734375 L 193.59375 580.820312 L 158.492188 616.175781 L 158.492188 651.261719 L 123.394531 686.347656 L 123.394531 756.789062 L 158.492188 756.789062 L 193.59375 721.703125 L 228.960938 721.703125 L 264.0625 686.347656 L 299.429688 686.347656 L 334.53125 651.261719 L 369.898438 651.261719 L 405 616.175781 L 440.101562 651.261719 L 475.46875 651.261719 L 510.570312 686.347656 L 545.9375 686.347656 L 581.039062 721.703125 L 616.40625 721.703125 L 651.507812 756.789062 L 686.605469 756.789062 L 686.605469 686.347656 L 651.507812 651.261719 L 651.507812 616.175781 L 616.40625 580.820312 L 616.40625 545.734375 L 581.039062 510.378906 L 686.605469 404.851562 L 721.976562 404.851562 L 792.445312 334.410156 L 757.078125 299.324219 L 545.9375 299.324219 L 510.570312 263.96875 L 510.570312 228.882812 L 475.46875 193.527344 L 475.46875 158.441406 L 440.101562 123.355469 Z M 440.101562 88 " fill-opacity="1" fill-rule="evenodd"/><g clip-path="url(#00e19b8c59)"><path fill="#1e1a3f" d="M 422.550781 70.457031 L 422.550781 35.101562 L 387.449219 35.101562 L 387.449219 70.457031 L 352.082031 70.457031 L 352.082031 140.898438 L 316.980469 140.898438 L 316.980469 211.339844 L 281.609375 211.339844 L 281.609375 281.511719 L 35.105469 281.511719 L 35.105469 316.867188 L 0.00390625 316.867188 L 0.00390625 351.953125 L 35.105469 351.953125 L 35.105469 387.308594 L 70.472656 387.308594 L 70.472656 422.394531 L 140.941406 422.394531 L 140.941406 457.75 L 176.042969 457.75 L 176.042969 492.835938 L 211.410156 492.835938 L 211.410156 528.191406 L 176.042969 528.191406 L 176.042969 598.363281 L 140.941406 598.363281 L 140.941406 668.804688 L 105.574219 668.804688 L 105.574219 774.601562 L 176.042969 774.601562 L 176.042969 739.246094 L 246.511719 739.246094 L 246.511719 704.160156 L 316.980469 704.160156 L 316.980469 668.804688 L 387.449219 668.804688 L 387.449219 633.71875 L 493.019531 633.71875 L 493.019531 668.804688 L 563.488281 668.804688 L 563.488281 704.160156 L 633.957031 704.160156 L 633.957031 739.246094 L 669.058594 739.246094 L 669.058594 668.804688 L 633.957031 668.804688 L 633.957031 598.363281 L 598.589844 598.363281 L 598.589844 528.191406 L 563.488281 528.191406 L 563.488281 492.835938 L 633.957031 492.835938 L 633.957031 457.75 L 669.058594 457.75 L 669.058594 422.394531 L 739.527344 422.394531 L 739.527344 387.308594 L 774.898438 387.308594 L 774.898438 351.953125 L 809.996094 351.953125 L 809.996094 316.867188 L 774.898438 316.867188 L 774.898438 281.511719 L 528.390625 281.511719 L 528.390625 211.339844 L 493.019531 211.339844 L 493.019531 140.898438 L 457.917969 140.898438 L 457.917969 70.457031 Z M 704.425781 739.246094 L 704.425781 774.601562 L 633.957031 774.601562 L 633.957031 739.246094 L 563.488281 739.246094 L 563.488281 704.160156 L 493.019531 704.160156 L 493.019531 668.804688 L 422.550781 668.804688 L 422.550781 598.363281 L 387.449219 598.363281 L 387.449219 633.71875 L 316.980469 633.71875 L 316.980469 668.804688 L 246.511719 668.804688 L 246.511719 704.160156 L 176.042969 704.160156 L 176.042969 739.246094 L 140.941406 739.246094 L 140.941406 668.804688 L 176.042969 668.804688 L 176.042969 598.363281 L 211.410156 598.363281 L 211.410156 528.191406 L 246.511719 528.191406 L 246.511719 492.835938 L 211.410156 492.835938 L 211.410156 457.75 L 176.042969 457.75 L 176.042969 422.394531 L 140.941406 422.394531 L 140.941406 387.308594 L 70.472656 387.308594 L 70.472656 351.953125 L 35.105469 351.953125 L 35.105469 316.867188 L 281.609375 316.867188 L 281.609375 281.511719 L 316.980469 281.511719 L 316.980469 211.339844 L 352.082031 211.339844 L 352.082031 140.898438 L 387.449219 140.898438 L 387.449219 70.457031 L 422.550781 70.457031 L 422.550781 140.898438 L 457.917969 140.898438 L 457.917969 211.339844 L 493.019531 211.339844 L 493.019531 281.511719 L 528.390625 281.511719 L 528.390625 316.867188 L 774.898438 316.867188 L 774.898438 351.953125 L 739.527344 351.953125 L 739.527344 387.308594 L 669.058594 387.308594 L 669.058594 422.394531 L 633.957031 422.394531 L 633.957031 457.75 L 598.589844 457.75 L 598.589844 528.191406 L 633.957031 528.191406 L 633.957031 598.363281 L 669.058594 598.363281 L 669.058594 668.804688 L 704.425781 668.804688 Z M 704.425781 739.246094 " fill-opacity="1" fill-rule="evenodd"/></g><path fill="#ea9b22" d="M 176.042969 739.246094 L 176.042969 704.160156 L 246.511719 704.160156 L 246.511719 668.804688 L 316.980469 668.804688 L 316.980469 633.71875 L 387.449219 633.71875 L 387.449219 598.363281 L 422.550781 598.363281 L 422.550781 633.71875 L 493.019531 633.71875 L 493.019531 668.804688 L 563.488281 668.804688 L 563.488281 704.160156 L 633.957031 704.160156 L 633.957031 739.246094 L 669.058594 739.246094 L 669.058594 704.160156 L 633.957031 704.160156 L 633.957031 668.804688 L 598.589844 668.804688 L 598.589844 633.71875 L 563.488281 633.71875 L 563.488281 598.363281 L 528.390625 598.363281 L 528.390625 563.277344 L 493.019531 563.277344 L 493.019531 528.191406 L 457.917969 528.191406 L 457.917969 492.835938 L 422.550781 492.835938 L 422.550781 457.75 L 387.449219 457.75 L 387.449219 492.835938 L 352.082031 492.835938 L 352.082031 528.191406 L 316.980469 528.191406 L 316.980469 563.277344 L 281.609375 563.277344 L 281.609375 598.363281 L 246.511719 598.363281 L 246.511719 633.71875 L 211.410156 633.71875 L 211.410156 668.804688 L 176.042969 668.804688 L 176.042969 704.160156 L 140.941406 704.160156 L 140.941406 739.246094 Z M 316.980469 316.867188 L 316.980469 281.511719 L 352.082031 281.511719 L 352.082031 211.339844 L 316.980469 211.339844 L 316.980469 281.511719 L 281.609375 281.511719 L 281.609375 316.867188 Z M 739.527344 316.867188 L 739.527344 351.953125 L 669.058594 351.953125 L 669.058594 387.308594 L 598.589844 387.308594 L 598.589844 422.394531 L 528.390625 422.394531 L 528.390625 457.75 L 563.488281 457.75 L 563.488281 492.835938 L 598.589844 492.835938 L 598.589844 457.75 L 633.957031 457.75 L 633.957031 422.394531 L 669.058594 422.394531 L 669.058594 387.308594 L 739.527344 387.308594 L 739.527344 351.953125 L 774.898438 351.953125 L 774.898438 316.867188 Z M 246.511719 457.75 L 281.609375 457.75 L 281.609375 422.394531 L 211.410156 422.394531 L 211.410156 387.308594 L 140.941406 387.308594 L 140.941406 351.953125 L 70.472656 351.953125 L 70.472656 316.867188 L 35.105469 316.867188 L 35.105469 351.953125 L 70.472656 351.953125 L 70.472656 387.308594 L 140.941406 387.308594 L 140.941406 422.394531 L 176.042969 422.394531 L 176.042969 457.75 L 211.410156 457.75 L 211.410156 492.835938 L 246.511719 492.835938 Z M 246.511719 457.75 " fill-opacity="1" fill-rule="evenodd"/></svg>