<svg xmlns="http://www.w3.org/2000/svg" xmlns:xlink="http://www.w3.org/1999/xlink" width="500" zoomAndPan="magnify" viewBox="0 0 375 374.999991" height="500" preserveAspectRatio="xMidYMid meet" version="1.0"><defs><clipPath id="6cc04f204f"><path d="M 82.085938 84.871094 L 292.914062 84.871094 L 292.914062 234.839844 L 82.085938 234.839844 Z M 82.085938 84.871094 " clip-rule="nonzero"/></clipPath><clipPath id="a7f193a090"><path d="M 96.214844 122.90625 L 306.496094 122.90625 L 306.496094 315.257812 L 96.214844 315.257812 Z M 96.214844 122.90625 " clip-rule="nonzero"/></clipPath><clipPath id="b4b5a427d7"><path d="M 96.214844 143.15625 L 96.214844 295.5 C 96.214844 306.683594 105.28125 315.75 116.464844 315.75 L 286.789062 315.75 C 297.972656 315.75 307.039062 306.683594 307.039062 295.5 L 307.039062 143.15625 C 307.039062 131.972656 297.972656 122.90625 286.789062 122.90625 L 116.464844 122.90625 C 105.28125 122.90625 96.214844 131.972656 96.214844 143.15625 Z M 96.214844 143.15625 " clip-rule="nonzero"/></clipPath><clipPath id="a886d10df1"><path d="M 130 156 L 240 156 L 240 225 L 130 225 Z M 130 156 " clip-rule="nonzero"/></clipPath><clipPath id="547265aa3f"><path d="M 96.214844 143.15625 L 96.214844 295.5 C 96.214844 306.683594 105.28125 315.75 116.464844 315.75 L 286.789062 315.75 C 297.972656 315.75 307.039062 306.683594 307.039062 295.5 L 307.039062 143.15625 C 307.039062 131.972656 297.972656 122.90625 286.789062 122.90625 L 116.464844 122.90625 C 105.28125 122.90625 96.214844 131.972656 96.214844 143.15625 Z M 96.214844 143.15625 " clip-rule="nonzero"/></clipPath><clipPath id="faaa622296"><path d="M 0 16.40625 L 374.921875 16.40625 L 374.921875 349 L 0 349 Z M 0 16.40625 " clip-rule="nonzero"/></clipPath><clipPath id="a8d1373c23"><path d="M 20 63 L 355 63 L 355 358.726562 L 20 358.726562 Z M 20 63 " clip-rule="nonzero"/></clipPath></defs><g clip-path="url(#6cc04f204f)"><path fill="#000000" d="M 82.085938 84.871094 L 292.980469 84.871094 L 292.980469 234.839844 L 82.085938 234.839844 Z M 82.085938 84.871094 " fill-opacity="1" fill-rule="nonzero"/></g><g clip-path="url(#a7f193a090)"><g clip-path="url(#b4b5a427d7)"><path fill="#000000" d="M 104.667969 122.90625 L 505.066406 122.90625 C 505.601562 122.90625 506.132812 122.957031 506.65625 123.0625 C 507.179688 123.167969 507.6875 123.320312 508.183594 123.527344 C 508.675781 123.730469 509.144531 123.980469 509.589844 124.277344 C 510.035156 124.574219 510.445312 124.910156 510.824219 125.289062 C 511.199219 125.667969 511.539062 126.078125 511.835938 126.523438 C 512.132812 126.96875 512.382812 127.4375 512.585938 127.929688 C 512.789062 128.425781 512.945312 128.933594 513.050781 129.457031 C 513.152344 129.980469 513.207031 130.511719 513.207031 131.042969 L 513.207031 455.523438 C 513.207031 456.058594 513.152344 456.585938 513.050781 457.109375 C 512.945312 457.632812 512.789062 458.144531 512.585938 458.636719 C 512.382812 459.132812 512.132812 459.601562 511.835938 460.042969 C 511.539062 460.488281 511.199219 460.898438 510.824219 461.277344 C 510.445312 461.65625 510.035156 461.992188 509.589844 462.289062 C 509.144531 462.585938 508.675781 462.835938 508.183594 463.042969 C 507.6875 463.246094 507.179688 463.402344 506.65625 463.503906 C 506.132812 463.609375 505.601562 463.660156 505.066406 463.660156 L 104.667969 463.660156 C 104.132812 463.660156 103.601562 463.609375 103.078125 463.503906 C 102.554688 463.402344 102.046875 463.246094 101.550781 463.042969 C 101.058594 462.835938 100.589844 462.585938 100.144531 462.289062 C 99.699219 461.992188 99.289062 461.65625 98.910156 461.277344 C 98.535156 460.898438 98.195312 460.488281 97.898438 460.042969 C 97.601562 459.601562 97.351562 459.132812 97.148438 458.636719 C 96.941406 458.144531 96.789062 457.632812 96.683594 457.109375 C 96.582031 456.585938 96.527344 456.058594 96.527344 455.523438 L 96.527344 131.042969 C 96.527344 130.511719 96.582031 129.980469 96.683594 129.457031 C 96.789062 128.933594 96.941406 128.425781 97.148438 127.929688 C 97.351562 127.4375 97.601562 126.96875 97.898438 126.523438 C 98.195312 126.078125 98.535156 125.667969 98.910156 125.289062 C 99.289062 124.910156 99.699219 124.574219 100.144531 124.277344 C 100.589844 123.980469 101.058594 123.730469 101.550781 123.527344 C 102.046875 123.320312 102.554688 123.167969 103.078125 123.0625 C 103.601562 122.957031 104.132812 122.90625 104.667969 122.90625 Z M 104.667969 122.90625 " fill-opacity="1" fill-rule="nonzero"/></g></g><g clip-path="url(#a886d10df1)"><g clip-path="url(#547265aa3f)"><path fill="#ffffff" d="M 142.496094 158.347656 C 141.101562 156.957031 139.421875 156.257812 137.453125 156.257812 C 135.484375 156.257812 133.796875 156.960938 132.390625 158.367188 C 131.003906 159.753906 130.300781 161.441406 130.300781 163.410156 C 130.300781 165.378906 131.003906 167.070312 132.390625 168.453125 L 154.269531 190.335938 L 132.410156 212.195312 C 131.003906 213.601562 130.300781 215.289062 130.28125 217.257812 C 130.300781 219.226562 131.003906 220.914062 132.390625 222.300781 C 133.796875 223.6875 135.484375 224.390625 137.433594 224.410156 C 139.421875 224.410156 141.109375 223.707031 142.515625 222.300781 L 166.824219 197.96875 C 171.925781 192.886719 171.925781 187.785156 166.824219 182.679688 Z M 237.785156 212.234375 C 236.378906 210.828125 234.671875 210.125 232.683594 210.125 L 232.683594 210.113281 L 185.75 210.113281 L 185.75 210.125 C 183.761719 210.125 182.074219 210.828125 180.667969 212.234375 C 179.261719 213.640625 178.558594 215.328125 178.558594 217.316406 C 178.558594 219.308594 179.261719 221.015625 180.667969 222.421875 C 182.074219 223.828125 183.761719 224.53125 185.75 224.53125 L 185.75 224.519531 L 232.683594 224.519531 L 232.683594 224.53125 C 234.671875 224.53125 236.378906 223.828125 237.785156 222.421875 C 239.191406 221.015625 239.894531 219.308594 239.894531 217.316406 C 239.894531 215.328125 239.191406 213.640625 237.785156 212.234375 Z M 237.785156 212.234375 " fill-opacity="1" fill-rule="nonzero"/></g></g><g clip-path="url(#faaa622296)"><path fill="#d3e3f0" d="M 80.535156 246.234375 C 84.105469 251.410156 86.195312 257.683594 86.195312 264.449219 C 86.195312 279.449219 75.917969 292.046875 62.027344 295.574219 C 65.746094 301.023438 67.921875 307.609375 67.921875 314.703125 C 67.921875 333.464844 52.71875 348.675781 33.972656 348.675781 C 15.222656 348.675781 0.0195312 333.464844 0.0195312 314.703125 C 0.0195312 298.371094 11.539062 284.734375 26.890625 281.476562 C 23.800781 276.539062 22.011719 270.703125 22.011719 264.449219 C 22.011719 250.023438 31.515625 237.824219 44.597656 233.769531 C 41.703125 229.128906 40.027344 223.644531 40.027344 217.769531 C 40.027344 205.21875 47.667969 194.449219 58.546875 189.871094 C 55.449219 185.320312 53.636719 179.820312 53.636719 173.898438 C 53.636719 163.035156 59.734375 153.597656 68.691406 148.824219 C 65.203125 144.332031 63.125 138.6875 63.125 132.558594 C 63.125 122.773438 68.421875 114.226562 76.300781 109.625 C 72.75 105.347656 70.613281 99.855469 70.613281 93.863281 C 70.613281 81.699219 79.410156 71.589844 90.984375 69.558594 C 90.140625 67.175781 89.683594 64.613281 89.683594 61.945312 C 89.683594 49.339844 99.894531 39.125 112.488281 39.125 C 114.839844 39.125 117.101562 39.480469 119.238281 40.140625 C 120.164062 29.421875 129.152344 21.007812 140.105469 21.007812 C 145.722656 21.007812 150.820312 23.21875 154.582031 26.820312 C 157.738281 20.625 164.175781 16.386719 171.601562 16.386719 C 178.195312 16.386719 184.007812 19.730469 187.441406 24.8125 C 190.871094 19.730469 196.683594 16.386719 203.277344 16.386719 C 210.703125 16.386719 217.136719 20.625 220.296875 26.820312 C 224.058594 23.21875 229.15625 21.007812 234.773438 21.007812 C 245.726562 21.007812 254.714844 29.421875 255.644531 40.140625 C 257.773438 39.480469 260.039062 39.125 262.390625 39.125 C 274.984375 39.125 285.195312 49.339844 285.195312 61.945312 C 285.195312 64.613281 284.738281 67.175781 283.894531 69.558594 C 295.46875 71.589844 304.265625 81.699219 304.265625 93.863281 C 304.265625 99.855469 302.128906 105.347656 298.578125 109.625 C 306.457031 114.226562 311.75 122.773438 311.75 132.558594 C 311.75 138.6875 309.675781 144.332031 306.1875 148.824219 C 315.144531 153.597656 321.242188 163.035156 321.242188 173.898438 C 321.242188 179.820312 319.429688 185.320312 316.332031 189.871094 C 327.210938 194.449219 334.851562 205.21875 334.851562 217.769531 C 334.851562 223.644531 333.175781 229.128906 330.28125 233.769531 C 343.363281 237.824219 352.867188 250.023438 352.867188 264.449219 C 352.867188 270.703125 351.078125 276.539062 347.988281 281.476562 C 363.335938 284.734375 374.855469 298.371094 374.855469 314.703125 C 374.855469 333.464844 359.660156 348.675781 340.910156 348.675781 C 322.160156 348.675781 306.960938 333.464844 306.960938 314.703125 C 306.960938 307.609375 309.132812 301.023438 312.851562 295.574219 C 298.957031 292.046875 288.683594 279.449219 288.683594 264.449219 C 288.683594 257.683594 290.773438 251.410156 294.34375 246.234375 C 282.703125 242.027344 274.382812 230.871094 274.382812 217.769531 C 274.382812 210.898438 276.671875 204.5625 280.53125 199.480469 C 271.035156 194.890625 264.488281 185.160156 264.488281 173.898438 C 264.488281 166.761719 267.121094 160.238281 271.464844 155.25 C 263.816406 150.589844 258.710938 142.171875 258.710938 132.558594 C 258.710938 125.527344 261.441406 119.136719 265.902344 114.386719 C 259.289062 109.960938 254.9375 102.421875 254.9375 93.863281 C 254.9375 90.398438 255.652344 87.101562 256.9375 84.109375 C 247.109375 81.699219 239.785156 72.914062 239.585938 62.382812 C 238.042969 62.742188 236.429688 62.9375 234.773438 62.9375 C 226.109375 62.9375 218.679688 57.675781 215.488281 50.175781 C 212.175781 52.933594 208.894531 54.59375 203.277344 54.59375 C 192.039062 54.59375 182.839844 54.59375 171.601562 54.59375 C 165.980469 54.59375 162.703125 52.933594 159.390625 50.175781 C 156.199219 57.675781 148.765625 62.9375 140.105469 62.9375 C 138.449219 62.9375 136.835938 62.742188 135.292969 62.382812 C 135.09375 72.914062 127.769531 81.699219 117.941406 84.109375 C 119.226562 87.101562 119.941406 90.398438 119.941406 93.863281 C 119.941406 102.421875 115.585938 109.960938 108.976562 114.386719 C 113.433594 119.136719 116.167969 125.527344 116.167969 132.558594 C 116.167969 142.171875 111.058594 150.589844 103.414062 155.25 C 107.757812 160.238281 110.394531 166.761719 110.394531 173.898438 C 110.394531 185.160156 103.84375 194.890625 94.347656 199.480469 C 98.207031 204.5625 100.5 210.898438 100.5 217.769531 C 100.5 230.871094 92.175781 242.027344 80.535156 246.234375 " fill-opacity="1" fill-rule="evenodd"/></g><path fill="#e7eff5" d="M 86.007812 257.441406 C 89.394531 262.355469 91.382812 268.308594 91.382812 274.726562 C 91.382812 288.957031 81.628906 300.90625 68.449219 304.257812 C 71.976562 309.425781 74.042969 315.675781 74.042969 322.40625 C 74.042969 340.207031 59.621094 354.640625 41.832031 354.640625 C 24.039062 354.640625 9.621094 340.207031 9.621094 322.40625 C 9.621094 306.910156 20.546875 293.972656 35.113281 290.878906 C 32.179688 286.195312 30.484375 280.660156 30.484375 274.726562 C 30.484375 261.039062 39.5 249.464844 51.914062 245.617188 C 49.167969 241.214844 47.578125 236.011719 47.578125 230.4375 C 47.578125 218.527344 54.824219 208.3125 65.148438 203.964844 C 62.207031 199.648438 60.488281 194.429688 60.488281 188.8125 C 60.488281 178.503906 66.273438 169.550781 74.773438 165.019531 C 71.464844 160.757812 69.496094 155.402344 69.496094 149.589844 C 69.496094 140.304688 74.515625 132.195312 81.992188 127.828125 C 78.625 123.773438 76.597656 118.558594 76.597656 112.875 C 76.597656 101.332031 84.941406 91.742188 95.921875 89.8125 C 95.125 87.554688 94.6875 85.125 94.6875 82.59375 C 94.6875 70.636719 104.375 60.941406 116.328125 60.941406 C 118.554688 60.941406 120.707031 61.277344 122.730469 61.902344 C 123.609375 51.734375 132.136719 43.753906 142.53125 43.753906 C 147.859375 43.753906 152.695312 45.851562 156.265625 49.265625 C 159.261719 43.390625 165.367188 39.363281 172.414062 39.363281 C 178.667969 39.363281 184.183594 42.539062 187.441406 47.363281 C 190.695312 42.539062 196.207031 39.363281 202.464844 39.363281 C 209.511719 39.363281 215.617188 43.390625 218.613281 49.265625 C 222.183594 45.851562 227.023438 43.753906 232.351562 43.753906 C 242.742188 43.753906 251.269531 51.734375 252.152344 61.902344 C 254.171875 61.277344 256.320312 60.941406 258.550781 60.941406 C 270.5 60.941406 280.191406 70.636719 280.191406 82.59375 C 280.191406 85.125 279.753906 87.554688 278.957031 89.8125 C 289.9375 91.742188 298.28125 101.332031 298.28125 112.875 C 298.28125 118.558594 296.257812 123.773438 292.886719 127.828125 C 300.363281 132.195312 305.386719 140.304688 305.386719 149.589844 C 305.386719 155.402344 303.414062 160.757812 300.105469 165.019531 C 308.605469 169.550781 314.390625 178.503906 314.390625 188.8125 C 314.390625 194.429688 312.671875 199.648438 309.730469 203.964844 C 320.054688 208.3125 327.300781 218.527344 327.300781 230.4375 C 327.300781 236.011719 325.714844 241.214844 322.964844 245.617188 C 335.378906 249.464844 344.394531 261.039062 344.394531 274.726562 C 344.394531 280.660156 342.699219 286.195312 339.765625 290.878906 C 354.328125 293.972656 365.261719 306.910156 365.261719 322.40625 C 365.261719 340.207031 350.835938 354.640625 333.046875 354.640625 C 315.257812 354.640625 300.839844 340.207031 300.839844 322.40625 C 300.839844 315.675781 302.902344 309.425781 306.429688 304.257812 C 293.25 300.90625 283.5 288.957031 283.5 274.726562 C 283.5 268.308594 285.484375 262.355469 288.871094 257.441406 C 277.824219 253.449219 275.042969 242.867188 275.042969 230.4375 C 275.042969 223.914062 272.105469 217.902344 275.765625 213.085938 C 266.753906 208.726562 270.472656 199.496094 270.472656 188.8125 C 270.472656 182.039062 263.039062 175.851562 267.164062 171.117188 C 259.90625 166.699219 264.203125 157.855469 264.203125 148.734375 C 264.203125 142.066406 257.652344 136.855469 261.886719 132.347656 C 255.613281 128.148438 251.480469 120.996094 251.480469 112.875 C 251.480469 109.589844 252.15625 106.460938 253.378906 103.621094 C 244.054688 101.332031 237.105469 92.996094 236.917969 83.003906 C 235.449219 83.347656 233.921875 83.53125 232.351562 83.53125 C 224.132812 83.53125 217.078125 78.542969 214.050781 71.425781 C 210.910156 74.042969 207.796875 75.617188 202.464844 75.617188 C 192.207031 75.617188 182.671875 75.617188 172.414062 75.617188 C 167.082031 75.617188 163.96875 74.042969 160.828125 71.425781 C 157.800781 78.542969 150.746094 83.53125 142.53125 83.53125 C 140.957031 83.53125 139.429688 83.347656 137.960938 83.003906 C 137.777344 92.996094 130.824219 101.332031 121.5 103.621094 C 122.722656 106.460938 123.398438 109.589844 123.398438 112.875 C 123.398438 120.996094 119.269531 128.148438 112.992188 132.347656 C 117.226562 136.855469 112.597656 142.917969 112.597656 149.589844 C 112.597656 158.710938 114.972656 166.699219 107.714844 171.117188 C 111.839844 175.851562 109.824219 182.039062 109.824219 188.8125 C 109.824219 199.496094 108.121094 208.726562 99.113281 213.085938 C 102.777344 217.902344 101.039062 223.914062 101.039062 230.4375 C 101.039062 242.867188 97.054688 253.449219 86.007812 257.441406 " fill-opacity="1" fill-rule="evenodd"/><g clip-path="url(#a8d1373c23)"><path fill="#ffffff" d="M 92.378906 267.613281 C 95.554688 272.214844 97.414062 277.796875 97.414062 283.808594 C 97.414062 297.148438 88.273438 308.347656 75.921875 311.488281 C 79.226562 316.332031 81.160156 322.1875 81.160156 328.496094 C 81.160156 345.183594 67.644531 358.703125 50.972656 358.703125 C 34.300781 358.703125 20.785156 345.183594 20.785156 328.496094 C 20.785156 313.976562 31.027344 301.847656 44.679688 298.949219 C 41.929688 294.5625 40.339844 289.371094 40.339844 283.808594 C 40.339844 270.984375 48.789062 260.132812 60.421875 256.527344 C 57.847656 252.402344 56.359375 247.527344 56.359375 242.300781 C 56.359375 231.140625 63.152344 221.566406 72.828125 217.492188 C 70.070312 213.445312 68.460938 208.558594 68.460938 203.292969 C 68.460938 193.632812 73.882812 185.238281 81.847656 180.992188 C 78.746094 177 76.898438 171.980469 76.898438 166.53125 C 76.898438 157.828125 81.609375 150.230469 88.613281 146.136719 C 85.457031 142.335938 83.554688 137.449219 83.554688 132.121094 C 83.554688 121.304688 91.375 112.316406 101.667969 110.507812 C 100.921875 108.394531 100.511719 106.117188 100.511719 103.742188 C 100.511719 92.535156 109.59375 83.449219 120.792969 83.449219 C 122.882812 83.449219 124.894531 83.765625 126.792969 84.351562 C 127.617188 74.820312 135.609375 67.339844 145.351562 67.339844 C 150.34375 67.339844 154.878906 69.308594 158.222656 72.507812 C 161.03125 67 166.753906 63.226562 173.355469 63.226562 C 179.21875 63.226562 184.386719 66.203125 187.441406 70.722656 C 190.488281 66.203125 195.660156 63.226562 201.523438 63.226562 C 208.125 63.226562 213.847656 67 216.65625 72.507812 C 220 69.308594 224.535156 67.339844 229.53125 67.339844 C 239.269531 67.339844 247.261719 74.820312 248.085938 84.351562 C 249.984375 83.765625 251.996094 83.449219 254.085938 83.449219 C 265.285156 83.449219 274.367188 92.535156 274.367188 103.742188 C 274.367188 106.117188 273.957031 108.394531 273.210938 110.507812 C 283.5 112.316406 291.320312 121.304688 291.320312 132.121094 C 291.320312 137.449219 289.421875 142.335938 286.265625 146.136719 C 293.269531 150.230469 297.980469 157.828125 297.980469 166.53125 C 297.980469 171.980469 296.132812 177 293.03125 180.992188 C 300.996094 185.238281 306.417969 193.632812 306.417969 203.292969 C 306.417969 208.558594 304.808594 213.445312 302.050781 217.492188 C 311.726562 221.566406 318.519531 231.140625 318.519531 242.300781 C 318.519531 247.527344 317.03125 252.402344 314.457031 256.527344 C 326.089844 260.132812 334.539062 270.984375 334.539062 283.808594 C 334.539062 289.371094 332.949219 294.5625 330.199219 298.949219 C 343.851562 301.847656 354.09375 313.976562 354.09375 328.496094 C 354.09375 345.183594 340.578125 358.703125 323.90625 358.703125 C 307.230469 358.703125 293.71875 345.183594 293.71875 328.496094 C 293.71875 322.1875 295.652344 316.332031 298.957031 311.488281 C 286.605469 308.347656 277.464844 297.148438 277.464844 283.808594 C 277.464844 277.796875 279.324219 272.214844 282.5 267.613281 C 272.148438 263.871094 264.75 253.953125 264.75 242.300781 C 264.75 236.191406 266.785156 230.554688 270.21875 226.039062 C 261.777344 221.957031 255.949219 213.304688 255.949219 203.292969 C 255.949219 196.945312 258.292969 191.144531 262.15625 186.707031 C 255.355469 182.566406 250.8125 175.078125 250.8125 166.53125 C 250.8125 160.277344 253.242188 154.597656 257.210938 150.375 C 251.332031 146.4375 247.457031 139.734375 247.457031 132.121094 C 247.457031 129.042969 248.09375 126.113281 249.238281 123.449219 C 240.5 121.304688 233.984375 113.492188 233.8125 104.128906 C 232.4375 104.453125 231.003906 104.625 229.53125 104.625 C 221.828125 104.625 215.21875 99.945312 212.382812 93.273438 C 209.4375 95.730469 205.652344 97.203125 201.523438 97.203125 C 195.660156 97.203125 190.488281 94.230469 187.441406 89.707031 C 184.386719 94.230469 179.21875 97.203125 173.355469 97.203125 C 169.226562 97.203125 165.441406 95.730469 162.496094 93.273438 C 159.660156 99.945312 153.050781 104.625 145.351562 104.625 C 143.875 104.625 142.441406 104.453125 141.066406 104.128906 C 140.894531 113.492188 134.378906 121.304688 125.640625 123.449219 C 126.785156 126.113281 127.421875 129.042969 127.421875 132.121094 C 127.421875 139.734375 123.546875 146.4375 117.667969 150.375 C 121.636719 154.597656 124.066406 160.277344 124.066406 166.53125 C 124.066406 175.078125 119.523438 182.566406 112.722656 186.707031 C 116.585938 191.144531 118.929688 196.945312 118.929688 203.292969 C 118.929688 213.304688 113.105469 221.957031 104.660156 226.039062 C 108.089844 230.554688 110.128906 236.191406 110.128906 242.300781 C 110.128906 253.953125 102.730469 263.871094 92.378906 267.613281 " fill-opacity="1" fill-rule="evenodd"/></g></svg>