<svg xmlns="http://www.w3.org/2000/svg" xmlns:xlink="http://www.w3.org/1999/xlink" width="1920" zoomAndPan="magnify" viewBox="0 0 1440 809.999993" height="1080" preserveAspectRatio="xMidYMid meet" version="1.0"><path fill="#d58c36" d="M 1.527344 12.863281 C 2.777344 15.109375 4.054688 17.332031 5.351562 19.535156 C 5.886719 20.449219 7.058594 20.75 7.96875 20.21875 C 8.878906 19.683594 9.183594 18.511719 8.648438 17.601562 C 7.363281 15.414062 6.101562 13.226562 4.863281 11 C 4.347656 10.082031 3.183594 9.753906 2.261719 10.269531 C 1.339844 10.78125 1.011719 11.945312 1.527344 12.863281 " fill-opacity="1" fill-rule="nonzero"/><path fill="#d58c36" d="M 13.402344 32.53125 C 16.183594 36.804688 19.0625 41.015625 22.015625 45.148438 C 22.628906 46.007812 23.824219 46.210938 24.683594 45.597656 C 25.542969 44.980469 25.738281 43.789062 25.125 42.929688 C 22.199219 38.835938 19.359375 34.679688 16.601562 30.449219 C 16.027344 29.558594 14.84375 29.316406 13.960938 29.890625 C 13.074219 30.464844 12.824219 31.644531 13.402344 32.53125 Z M 31.171875 57.386719 C 34.3125 61.402344 37.53125 65.347656 40.828125 69.214844 C 41.511719 70.019531 42.71875 70.121094 43.523438 69.4375 C 44.328125 68.75 44.421875 67.546875 43.742188 66.742188 C 40.476562 62.910156 37.289062 59.003906 34.179688 55.027344 C 33.53125 54.199219 32.328125 54.054688 31.496094 54.695312 C 30.664062 55.347656 30.519531 56.550781 31.171875 57.386719 Z M 50.957031 80.648438 C 54.410156 84.394531 57.929688 88.066406 61.523438 91.675781 C 62.269531 92.417969 63.476562 92.421875 64.226562 91.679688 C 64.976562 90.929688 64.976562 89.71875 64.234375 88.972656 C 60.675781 85.40625 57.1875 81.769531 53.769531 78.054688 C 53.050781 77.273438 51.84375 77.230469 51.066406 77.953125 C 50.289062 78.664062 50.242188 79.875 50.957031 80.648438 Z M 72.492188 102.285156 C 76.214844 105.753906 79.996094 109.164062 83.832031 112.5 C 84.628906 113.195312 85.839844 113.109375 86.53125 112.3125 C 87.222656 111.515625 87.140625 110.308594 86.34375 109.617188 C 82.535156 106.304688 78.789062 102.9375 75.101562 99.496094 C 74.328125 98.777344 73.121094 98.816406 72.398438 99.585938 C 71.679688 100.363281 71.722656 101.566406 72.492188 102.285156 Z M 95.515625 122.320312 C 99.464844 125.523438 103.460938 128.671875 107.511719 131.75 C 108.351562 132.386719 109.550781 132.226562 110.191406 131.382812 C 110.828125 130.546875 110.667969 129.34375 109.828125 128.710938 C 105.808594 125.652344 101.84375 122.535156 97.929688 119.355469 C 97.109375 118.6875 95.90625 118.808594 95.238281 119.628906 C 94.574219 120.449219 94.699219 121.652344 95.515625 122.320312 Z M 119.789062 140.800781 C 123.925781 143.757812 128.109375 146.652344 132.328125 149.488281 C 133.203125 150.070312 134.390625 149.839844 134.980469 148.964844 C 135.570312 148.085938 135.335938 146.898438 134.460938 146.308594 C 130.269531 143.496094 126.117188 140.621094 122.011719 137.6875 C 121.152344 137.074219 119.957031 137.277344 119.34375 138.132812 C 118.730469 138.992188 118.933594 140.1875 119.789062 140.800781 Z M 145.101562 157.816406 C 149.402344 160.535156 153.730469 163.195312 158.089844 165.800781 C 158.996094 166.34375 160.171875 166.046875 160.710938 165.140625 C 161.253906 164.234375 160.957031 163.066406 160.054688 162.519531 C 155.71875 159.933594 151.414062 157.285156 147.148438 154.585938 C 146.253906 154.023438 145.074219 154.285156 144.507812 155.179688 C 143.945312 156.070312 144.210938 157.25 145.101562 157.816406 Z M 171.273438 173.464844 C 175.707031 175.960938 180.160156 178.40625 184.636719 180.800781 C 185.566406 181.296875 186.726562 180.949219 187.222656 180.011719 C 187.71875 179.085938 187.371094 177.929688 186.4375 177.433594 C 181.988281 175.050781 177.558594 172.621094 173.15625 170.128906 C 172.234375 169.609375 171.070312 169.9375 170.550781 170.855469 C 170.03125 171.773438 170.355469 172.941406 171.273438 173.464844 Z M 198.15625 187.835938 C 202.699219 190.132812 207.257812 192.378906 211.828125 194.578125 C 212.78125 195.039062 213.921875 194.632812 214.378906 193.679688 C 214.835938 192.730469 214.4375 191.589844 213.484375 191.128906 C 208.9375 188.945312 204.40625 186.710938 199.886719 184.425781 C 198.945312 183.949219 197.796875 184.328125 197.320312 185.269531 C 196.839844 186.203125 197.21875 187.359375 198.15625 187.835938 Z M 225.625 201.046875 C 230.242188 203.152344 234.882812 205.21875 239.539062 207.242188 C 240.511719 207.664062 241.636719 207.21875 242.054688 206.246094 C 242.476562 205.28125 242.03125 204.15625 241.0625 203.734375 C 236.425781 201.726562 231.8125 199.664062 227.214844 197.566406 C 226.253906 197.128906 225.117188 197.550781 224.679688 198.507812 C 224.242188 199.464844 224.664062 200.597656 225.625 201.046875 Z M 253.582031 213.167969 C 258.285156 215.097656 263.007812 216.964844 267.75 218.789062 C 268.734375 219.164062 269.839844 218.671875 270.21875 217.6875 C 270.59375 216.699219 270.101562 215.59375 269.117188 215.21875 C 264.40625 213.410156 259.710938 211.546875 255.03125 209.625 C 254.050781 209.226562 252.933594 209.695312 252.535156 210.675781 C 252.136719 211.648438 252.601562 212.765625 253.582031 213.167969 Z M 282.046875 224.074219 C 286.839844 225.785156 291.648438 227.425781 296.480469 229 C 297.480469 229.332031 298.5625 228.785156 298.886719 227.773438 C 299.21875 226.78125 298.667969 225.699219 297.667969 225.371094 C 292.871094 223.804688 288.089844 222.167969 283.328125 220.476562 C 282.335938 220.121094 281.238281 220.644531 280.886719 221.628906 C 280.535156 222.628906 281.050781 223.722656 282.046875 224.074219 Z M 311.039062 233.539062 C 315.917969 234.984375 320.820312 236.359375 325.734375 237.652344 C 326.753906 237.921875 327.800781 237.316406 328.070312 236.289062 C 328.335938 235.269531 327.726562 234.226562 326.707031 233.957031 C 321.832031 232.671875 316.96875 231.308594 312.128906 229.875 C 311.117188 229.578125 310.050781 230.152344 309.75 231.164062 C 309.453125 232.175781 310.027344 233.238281 311.039062 233.539062 Z M 340.546875 241.304688 C 345.507812 242.449219 350.488281 243.503906 355.480469 244.472656 C 356.515625 244.667969 357.519531 243.996094 357.722656 242.960938 C 357.921875 241.917969 357.246094 240.917969 356.207031 240.714844 C 351.257812 239.757812 346.324219 238.710938 341.40625 237.582031 C 340.375 237.347656 339.347656 237.988281 339.113281 239.015625 C 338.875 240.042969 339.519531 241.070312 340.546875 241.304688 Z M 370.515625 247.113281 C 375.542969 247.90625 380.585938 248.59375 385.640625 249.191406 C 386.691406 249.320312 387.640625 248.570312 387.765625 247.523438 C 387.886719 246.472656 387.140625 245.519531 386.089844 245.398438 C 381.082031 244.808594 376.089844 244.117188 371.105469 243.335938 C 370.066406 243.167969 369.085938 243.882812 368.921875 244.925781 C 368.761719 245.964844 369.472656 246.945312 370.515625 247.113281 Z M 400.839844 250.683594 C 405.917969 251.082031 411.003906 251.375 416.089844 251.566406 C 417.144531 251.613281 418.03125 250.785156 418.070312 249.734375 C 418.109375 248.675781 417.289062 247.789062 416.234375 247.75 C 411.199219 247.558594 406.167969 247.265625 401.140625 246.878906 C 400.085938 246.792969 399.167969 247.582031 399.082031 248.632812 C 399 249.679688 399.789062 250.601562 400.84375 250.683594 Z M 431.359375 251.847656 C 436.449219 251.839844 441.539062 251.734375 446.625 251.535156 C 447.679688 251.492188 448.5 250.601562 448.460938 249.550781 C 448.417969 248.496094 447.527344 247.675781 446.476562 247.714844 C 441.433594 247.917969 436.398438 248.019531 431.355469 248.027344 C 430.300781 248.027344 429.441406 248.882812 429.445312 249.941406 C 429.445312 251 430.300781 251.847656 431.359375 251.847656 Z M 461.871094 250.632812 C 466.941406 250.238281 472.007812 249.742188 477.066406 249.160156 C 478.113281 249.035156 478.867188 248.085938 478.746094 247.035156 C 478.621094 245.988281 477.675781 245.238281 476.625 245.359375 C 471.617188 245.941406 466.597656 246.433594 461.570312 246.824219 C 460.515625 246.90625 459.730469 247.828125 459.8125 248.878906 C 459.898438 249.933594 460.816406 250.714844 461.871094 250.632812 Z M 492.199219 247.113281 C 497.222656 246.339844 502.238281 245.476562 507.238281 244.515625 C 508.277344 244.316406 508.957031 243.324219 508.757812 242.28125 C 508.558594 241.246094 507.554688 240.5625 506.519531 240.765625 C 501.566406 241.710938 496.59375 242.570312 491.613281 243.335938 C 490.570312 243.5 489.855469 244.472656 490.015625 245.511719 C 490.175781 246.5625 491.152344 247.277344 492.195312 247.113281 Z M 522.179688 241.382812 C 527.136719 240.242188 532.074219 239.023438 536.996094 237.714844 C 538.015625 237.4375 538.621094 236.386719 538.351562 235.367188 C 538.078125 234.351562 537.03125 233.746094 536.011719 234.011719 C 531.132812 235.3125 526.238281 236.527344 521.324219 237.652344 C 520.296875 237.890625 519.652344 238.917969 519.886719 239.945312 C 520.125 240.96875 521.148438 241.613281 522.179688 241.382812 Z M 551.671875 233.519531 C 556.535156 232.035156 561.378906 230.472656 566.195312 228.820312 C 567.191406 228.480469 567.722656 227.390625 567.382812 226.390625 C 567.039062 225.390625 565.953125 224.867188 564.953125 225.199219 C 560.179688 226.839844 555.378906 228.398438 550.558594 229.859375 C 549.550781 230.167969 548.980469 231.242188 549.285156 232.25 C 549.59375 233.253906 550.664062 233.828125 551.675781 233.519531 Z M 580.542969 223.625 C 585.292969 221.808594 590.015625 219.914062 594.707031 217.9375 C 595.679688 217.523438 596.136719 216.40625 595.726562 215.433594 C 595.316406 214.460938 594.195312 214.007812 593.222656 214.414062 C 588.574219 216.375 583.886719 218.25 579.179688 220.054688 C 578.195312 220.425781 577.699219 221.53125 578.074219 222.519531 C 578.453125 223.5 579.554688 223.996094 580.542969 223.625 Z M 608.667969 211.777344 C 613.285156 209.648438 617.867188 207.441406 622.417969 205.152344 C 623.359375 204.675781 623.742188 203.527344 623.265625 202.582031 C 622.792969 201.640625 621.640625 201.257812 620.699219 201.734375 C 616.1875 204.003906 611.644531 206.191406 607.066406 208.304688 C 606.109375 208.753906 605.691406 209.886719 606.132812 210.84375 C 606.574219 211.800781 607.710938 212.222656 608.667969 211.777344 Z M 635.933594 198.070312 C 639.085938 196.347656 642.21875 194.59375 645.332031 192.800781 C 646.628906 192.058594 647.917969 191.296875 649.207031 190.539062 C 650.117188 190.003906 650.417969 188.832031 649.882812 187.925781 C 649.347656 187.015625 648.175781 186.714844 647.269531 187.253906 C 645.988281 188.003906 644.707031 188.746094 643.425781 189.488281 C 640.335938 191.269531 637.226562 193.007812 634.101562 194.714844 C 633.179688 195.222656 632.835938 196.378906 633.339844 197.304688 C 633.847656 198.230469 635.007812 198.578125 635.933594 198.070312 Z M 662.226562 182.589844 C 666.519531 179.867188 670.773438 177.078125 674.992188 174.230469 C 675.867188 173.628906 676.085938 172.441406 675.496094 171.570312 C 674.90625 170.695312 673.71875 170.46875 672.84375 171.0625 C 668.660156 173.898438 664.441406 176.664062 660.183594 179.363281 C 659.292969 179.921875 659.023438 181.101562 659.589844 181.996094 C 660.152344 182.882812 661.335938 183.152344 662.226562 182.589844 Z M 687.480469 165.472656 C 691.59375 162.492188 695.667969 159.449219 699.695312 156.339844 C 700.53125 155.695312 700.691406 154.492188 700.039062 153.65625 C 699.394531 152.820312 698.203125 152.667969 697.367188 153.3125 C 693.367188 156.398438 689.320312 159.417969 685.234375 162.375 C 684.382812 162.996094 684.191406 164.191406 684.804688 165.042969 C 685.425781 165.898438 686.625 166.089844 687.480469 165.472656 Z M 711.636719 146.84375 C 715.566406 143.628906 719.449219 140.339844 723.289062 137.007812 C 724.085938 136.308594 724.171875 135.105469 723.472656 134.308594 C 722.78125 133.515625 721.574219 133.429688 720.777344 134.117188 C 716.964844 137.433594 713.113281 140.691406 709.214844 143.886719 C 708.394531 144.554688 708.277344 145.765625 708.945312 146.578125 C 709.613281 147.394531 710.820312 147.511719 711.636719 146.84375 Z M 734.652344 126.832031 C 738.386719 123.390625 742.078125 119.898438 745.71875 116.34375 C 746.476562 115.609375 746.492188 114.398438 745.753906 113.640625 C 745.023438 112.886719 743.808594 112.871094 743.054688 113.609375 C 739.433594 117.132812 735.773438 120.601562 732.0625 124.019531 C 731.28125 124.734375 731.234375 125.941406 731.949219 126.726562 C 732.667969 127.5 733.871094 127.546875 734.652344 126.832031 Z M 756.492188 105.550781 C 760.035156 101.910156 763.527344 98.214844 766.964844 94.46875 C 767.679688 93.695312 767.632812 92.484375 766.851562 91.773438 C 766.078125 91.050781 764.867188 91.105469 764.15625 91.878906 C 760.730469 95.605469 757.265625 99.273438 753.746094 102.886719 C 753.015625 103.648438 753.035156 104.859375 753.785156 105.59375 C 754.546875 106.332031 755.757812 106.304688 756.492188 105.550781 Z M 777.136719 83.113281 C 780.476562 79.285156 783.765625 75.40625 787.007812 71.492188 C 787.671875 70.671875 787.566406 69.46875 786.746094 68.792969 C 785.929688 68.121094 784.726562 68.238281 784.054688 69.054688 C 780.835938 72.949219 777.570312 76.800781 774.253906 80.601562 C 773.566406 81.398438 773.648438 82.601562 774.4375 83.300781 C 775.238281 83.988281 776.445312 83.90625 777.136719 83.113281 Z M 796.5625 59.609375 C 799.695312 55.609375 802.773438 51.574219 805.808594 47.488281 C 806.4375 46.644531 806.261719 45.449219 805.410156 44.816406 C 804.566406 44.1875 803.375 44.363281 802.734375 45.210938 C 799.726562 49.265625 796.660156 53.277344 793.550781 57.257812 C 792.898438 58.085938 793.042969 59.285156 793.878906 59.9375 C 794.707031 60.589844 795.910156 60.445312 796.5625 59.609375 Z M 814.746094 35.136719 C 817.671875 30.992188 820.546875 26.792969 823.367188 22.570312 C 823.957031 21.691406 823.71875 20.503906 822.835938 19.921875 C 821.964844 19.332031 820.777344 19.566406 820.1875 20.449219 C 817.382812 24.648438 814.523438 28.816406 811.621094 32.9375 C 811.011719 33.804688 811.21875 34.992188 812.085938 35.605469 C 812.941406 36.210938 814.140625 36.003906 814.746094 35.136719 " fill-opacity="1" fill-rule="nonzero"/><path fill="#d58c36" d="M 831.753906 9.65625 C 833.121094 7.492188 834.46875 5.324219 835.808594 3.148438 C 836.363281 2.242188 836.085938 1.074219 835.183594 0.519531 C 834.285156 -0.03125 833.105469 0.246094 832.550781 1.144531 C 831.21875 3.308594 829.878906 5.460938 828.523438 7.617188 C 827.953125 8.503906 828.222656 9.683594 829.121094 10.25 C 830.011719 10.808594 831.191406 10.550781 831.753906 9.65625 " fill-opacity="1" fill-rule="nonzero"/><path fill="#d58c36" d="M 354.503906 26.816406 C 354.636719 29.351562 354.777344 31.894531 354.933594 34.449219 C 354.996094 35.503906 355.90625 36.300781 356.960938 36.238281 C 358.015625 36.171875 358.816406 35.265625 358.75 34.21875 C 358.59375 31.671875 358.453125 29.136719 358.324219 26.617188 C 358.269531 25.558594 357.367188 24.757812 356.3125 24.808594 C 355.261719 24.859375 354.449219 25.757812 354.507812 26.816406 L 354.503906 26.816406 " fill-opacity="1" fill-rule="nonzero"/><path fill="#d58c36" d="M 356.027344 49.707031 C 356.441406 54.765625 356.902344 59.84375 357.421875 64.949219 C 357.527344 66.007812 358.464844 66.765625 359.515625 66.664062 C 360.566406 66.558594 361.332031 65.613281 361.222656 64.566406 C 360.707031 59.484375 360.246094 54.429688 359.835938 49.402344 C 359.75 48.351562 358.828125 47.566406 357.777344 47.648438 C 356.722656 47.742188 355.941406 48.660156 356.027344 49.707031 Z M 359.113281 80.164062 C 359.71875 85.207031 360.382812 90.265625 361.09375 95.335938 C 361.242188 96.386719 362.207031 97.113281 363.253906 96.96875 C 364.300781 96.8125 365.027344 95.847656 364.882812 94.808594 C 364.171875 89.757812 363.511719 84.714844 362.910156 79.707031 C 362.78125 78.65625 361.828125 77.914062 360.78125 78.035156 C 359.734375 78.164062 358.984375 79.117188 359.113281 80.164062 Z M 363.367188 110.453125 C 364.171875 115.46875 365.027344 120.496094 365.933594 125.53125 C 366.121094 126.570312 367.113281 127.261719 368.152344 127.070312 C 369.191406 126.886719 369.882812 125.890625 369.699219 124.855469 C 368.792969 119.847656 367.941406 114.84375 367.144531 109.847656 C 366.976562 108.8125 365.996094 108.097656 364.953125 108.269531 C 363.910156 108.429688 363.203125 109.410156 363.371094 110.453125 Z M 368.789062 140.554688 C 369.792969 145.542969 370.84375 150.539062 371.945312 155.527344 C 372.171875 156.554688 373.195312 157.203125 374.226562 156.972656 C 375.253906 156.75 375.910156 155.734375 375.679688 154.699219 C 374.582031 149.734375 373.535156 144.765625 372.539062 139.804688 C 372.332031 138.769531 371.324219 138.097656 370.289062 138.304688 C 369.253906 138.507812 368.582031 139.519531 368.789062 140.554688 Z M 375.402344 170.429688 C 376.605469 175.382812 377.859375 180.335938 379.167969 185.269531 C 379.4375 186.289062 380.484375 186.890625 381.503906 186.625 C 382.523438 186.355469 383.132812 185.304688 382.863281 184.289062 C 381.5625 179.378906 380.316406 174.457031 379.121094 169.53125 C 378.867188 168.503906 377.835938 167.875 376.808594 168.121094 C 375.78125 168.375 375.152344 169.402344 375.402344 170.429688 Z M 383.246094 200.023438 C 384.664062 204.929688 386.128906 209.824219 387.652344 214.691406 C 387.96875 215.691406 389.039062 216.261719 390.046875 215.9375 C 391.054688 215.625 391.613281 214.550781 391.300781 213.550781 C 389.789062 208.707031 388.328125 203.851562 386.921875 198.960938 C 386.628906 197.949219 385.570312 197.367188 384.554688 197.65625 C 383.542969 197.949219 382.957031 199.007812 383.246094 200.023438 Z M 392.390625 229.257812 C 394.03125 234.105469 395.726562 238.921875 397.476562 243.707031 C 397.835938 244.699219 398.9375 245.207031 399.925781 244.847656 C 400.917969 244.488281 401.429688 243.382812 401.066406 242.394531 C 399.328125 237.636719 397.644531 232.847656 396.015625 228.027344 C 395.671875 227.03125 394.589844 226.488281 393.589844 226.835938 C 392.589844 227.171875 392.054688 228.25 392.390625 229.257812 Z M 402.917969 258.03125 C 404.800781 262.804688 406.742188 267.53125 408.738281 272.222656 C 409.152344 273.1875 410.273438 273.640625 411.246094 273.222656 C 412.21875 272.8125 412.667969 271.691406 412.253906 270.71875 C 410.269531 266.0625 408.347656 261.363281 406.476562 256.628906 C 406.085938 255.648438 404.980469 255.164062 403.996094 255.558594 C 403.015625 255.941406 402.535156 257.050781 402.917969 258.03125 Z M 414.945312 286.242188 C 417.085938 290.902344 419.289062 295.507812 421.554688 300.066406 C 422.019531 301.007812 423.167969 301.394531 424.113281 300.929688 C 425.0625 300.457031 425.445312 299.3125 424.976562 298.363281 C 422.730469 293.84375 420.542969 289.269531 418.417969 284.640625 C 417.980469 283.683594 416.839844 283.261719 415.882812 283.707031 C 414.921875 284.140625 414.503906 285.285156 414.945312 286.242188 Z M 428.585938 313.679688 C 431.011719 318.207031 433.503906 322.667969 436.058594 327.0625 C 436.589844 327.976562 437.757812 328.289062 438.671875 327.761719 C 439.585938 327.226562 439.894531 326.0625 439.367188 325.140625 C 436.832031 320.789062 434.359375 316.359375 431.953125 311.878906 C 431.453125 310.945312 430.292969 310.597656 429.363281 311.097656 C 428.429688 311.597656 428.085938 312.75 428.585938 313.679688 Z M 444 340.179688 C 445.34375 342.3125 446.703125 344.425781 448.078125 346.515625 C 449.503906 348.691406 450.960938 350.847656 452.445312 352.992188 C 453.046875 353.859375 454.238281 354.070312 455.105469 353.476562 C 455.972656 352.871094 456.1875 351.683594 455.585938 350.808594 C 454.121094 348.691406 452.683594 346.566406 451.277344 344.417969 C 449.910156 342.351562 448.5625 340.257812 447.230469 338.144531 C 446.667969 337.253906 445.492188 336.988281 444.597656 337.546875 C 443.703125 338.113281 443.4375 339.292969 444.003906 340.179688 Z M 461.496094 365.394531 C 464.605469 369.457031 467.824219 373.441406 471.136719 377.347656 C 471.820312 378.15625 473.027344 378.253906 473.832031 377.570312 C 474.636719 376.886719 474.734375 375.679688 474.050781 374.875 C 470.777344 371.019531 467.601562 367.074219 464.527344 363.066406 C 463.882812 362.234375 462.683594 362.070312 461.847656 362.714844 C 461.007812 363.359375 460.851562 364.5625 461.496094 365.394531 Z M 481.359375 388.8125 C 484.863281 392.550781 488.460938 396.195312 492.148438 399.75 C 492.910156 400.476562 494.121094 400.457031 494.847656 399.695312 C 495.582031 398.941406 495.5625 397.726562 494.800781 396.996094 C 491.160156 393.492188 487.609375 389.890625 484.148438 386.199219 C 483.425781 385.433594 482.21875 385.394531 481.445312 386.113281 C 480.675781 386.832031 480.636719 388.046875 481.359375 388.8125 Z M 503.492188 410.117188 C 507.371094 413.472656 511.335938 416.722656 515.378906 419.855469 C 516.214844 420.5 517.414062 420.34375 518.0625 419.519531 C 518.710938 418.683594 518.554688 417.480469 517.722656 416.835938 C 513.734375 413.742188 509.820312 410.539062 505.996094 407.230469 C 505.199219 406.53125 503.992188 406.625 503.300781 407.421875 C 502.609375 408.21875 502.695312 409.421875 503.492188 410.117188 Z M 527.800781 428.917969 C 532.035156 431.824219 536.347656 434.605469 540.734375 437.238281 C 541.640625 437.785156 542.8125 437.496094 543.359375 436.589844 C 543.902344 435.6875 543.609375 434.511719 542.707031 433.96875 C 538.386719 431.371094 534.140625 428.636719 529.964844 425.769531 C 529.097656 425.171875 527.90625 425.398438 527.308594 426.261719 C 526.710938 427.136719 526.929688 428.320312 527.800781 428.917969 Z M 554.160156 444.757812 C 558.71875 447.117188 563.351562 449.332031 568.046875 451.382812 C 569.015625 451.804688 570.144531 451.367188 570.566406 450.394531 C 570.988281 449.429688 570.546875 448.304688 569.578125 447.882812 C 564.960938 445.867188 560.410156 443.691406 555.921875 441.363281 C 554.984375 440.875 553.828125 441.242188 553.34375 442.175781 C 552.855469 443.117188 553.222656 444.265625 554.160156 444.757812 Z M 582.359375 457.0625 C 587.191406 458.785156 592.089844 460.332031 597.039062 461.703125 C 598.058594 461.980469 599.109375 461.382812 599.390625 460.371094 C 599.671875 459.351562 599.074219 458.304688 598.058594 458.019531 C 593.195312 456.679688 588.390625 455.15625 583.640625 453.460938 C 582.644531 453.109375 581.554688 453.621094 581.199219 454.617188 C 580.847656 455.613281 581.363281 456.707031 582.359375 457.0625 Z M 612.027344 465.242188 C 617.050781 466.230469 622.128906 467.03125 627.25 467.625 C 628.296875 467.742188 629.246094 466.992188 629.367188 465.949219 C 629.492188 464.898438 628.738281 463.949219 627.691406 463.824219 C 622.667969 463.246094 617.695312 462.464844 612.765625 461.492188 C 611.726562 461.289062 610.722656 461.964844 610.519531 463 C 610.316406 464.035156 610.992188 465.039062 612.027344 465.242188 Z M 642.617188 468.800781 C 645.027344 468.882812 647.433594 468.929688 649.835938 468.929688 C 652.570312 468.929688 655.300781 468.878906 658.027344 468.761719 C 659.082031 468.714844 659.90625 467.828125 659.859375 466.769531 C 659.816406 465.71875 658.925781 464.898438 657.871094 464.9375 C 655.195312 465.050781 652.519531 465.105469 649.835938 465.105469 C 647.480469 465.105469 645.117188 465.0625 642.757812 464.976562 C 641.703125 464.9375 640.8125 465.765625 640.773438 466.816406 C 640.738281 467.871094 641.5625 468.761719 642.617188 468.800781 Z M 673.390625 467.550781 C 678.484375 466.953125 683.558594 466.171875 688.609375 465.214844 C 689.640625 465.011719 690.324219 464.015625 690.125 462.976562 C 689.925781 461.941406 688.929688 461.261719 687.886719 461.457031 C 682.9375 462.402344 677.949219 463.167969 672.945312 463.75 C 671.894531 463.875 671.140625 464.820312 671.265625 465.871094 C 671.386719 466.921875 672.339844 467.675781 673.390625 467.550781 Z M 703.609375 461.8125 C 708.570312 460.507812 713.488281 459.035156 718.355469 457.398438 C 719.359375 457.0625 719.894531 455.980469 719.558594 454.984375 C 719.230469 453.980469 718.140625 453.445312 717.144531 453.773438 C 712.347656 455.382812 707.511719 456.832031 702.636719 458.117188 C 701.621094 458.386719 701.011719 459.429688 701.28125 460.449219 C 701.550781 461.46875 702.59375 462.082031 703.621094 461.8125 Z M 732.777344 452.042969 C 737.511719 450.113281 742.199219 448.027344 746.832031 445.800781 C 747.777344 445.347656 748.175781 444.199219 747.71875 443.246094 C 747.265625 442.296875 746.125 441.898438 745.167969 442.359375 C 740.617188 444.550781 735.996094 446.605469 731.328125 448.5 C 730.355469 448.902344 729.886719 450.019531 730.285156 450.992188 C 730.683594 451.972656 731.796875 452.441406 732.777344 452.042969 Z M 760.476562 438.726562 C 764.953125 436.238281 769.359375 433.617188 773.695312 430.875 C 774.585938 430.304688 774.84375 429.125 774.285156 428.238281 C 773.71875 427.34375 772.539062 427.082031 771.652344 427.640625 C 767.375 430.351562 763.03125 432.9375 758.625 435.386719 C 757.695312 435.898438 757.367188 437.0625 757.878906 437.984375 C 758.394531 438.910156 759.558594 439.238281 760.476562 438.726562 Z M 786.4375 422.285156 C 790.605469 419.304688 794.691406 416.203125 798.691406 412.996094 C 799.511719 412.339844 799.648438 411.136719 798.980469 410.308594 C 798.324219 409.488281 797.121094 409.359375 796.300781 410.019531 C 792.355469 413.183594 788.324219 416.234375 784.214844 419.175781 C 783.355469 419.789062 783.160156 420.984375 783.769531 421.839844 C 784.382812 422.699219 785.582031 422.898438 786.4375 422.285156 Z M 810.417969 403.0625 C 814.238281 399.636719 817.960938 396.121094 821.582031 392.503906 C 822.328125 391.753906 822.328125 390.542969 821.582031 389.800781 C 820.835938 389.046875 819.628906 389.046875 818.882812 389.800781 C 815.3125 393.359375 811.636719 396.839844 807.863281 400.210938 C 807.074219 400.914062 807.011719 402.128906 807.714844 402.914062 C 808.421875 403.699219 809.625 403.765625 810.417969 403.0625 Z M 832.152344 381.347656 L 833.042969 380.359375 C 836.171875 376.84375 839.195312 373.289062 842.140625 369.703125 C 842.808594 368.882812 842.683594 367.679688 841.871094 367.007812 C 841.050781 366.339844 839.851562 366.460938 839.183594 367.273438 C 836.269531 370.828125 833.273438 374.34375 830.183594 377.816406 L 829.3125 378.796875 C 828.605469 379.578125 828.667969 380.789062 829.457031 381.496094 C 830.246094 382.199219 831.449219 382.136719 832.152344 381.347656 Z M 851.59375 357.621094 C 854.667969 353.503906 857.640625 349.34375 860.507812 345.140625 C 861.105469 344.265625 860.875 343.078125 860.007812 342.480469 C 859.136719 341.890625 857.945312 342.113281 857.351562 342.984375 C 854.515625 347.144531 851.570312 351.261719 848.53125 355.328125 C 847.902344 356.179688 848.070312 357.375 848.921875 358.003906 C 849.761719 358.636719 850.960938 358.460938 851.59375 357.621094 Z M 868.882812 332.289062 C 871.597656 327.921875 874.199219 323.527344 876.714844 319.082031 C 877.234375 318.164062 876.914062 316.988281 875.992188 316.476562 C 875.074219 315.953125 873.910156 316.277344 873.390625 317.195312 C 870.898438 321.59375 868.316406 325.953125 865.632812 330.269531 C 865.074219 331.164062 865.347656 332.34375 866.246094 332.902344 C 867.140625 333.457031 868.324219 333.1875 868.882812 332.289062 Z M 884.007812 305.574219 C 886.351562 301.023438 888.605469 296.425781 890.773438 291.804688 C 891.21875 290.847656 890.8125 289.710938 889.855469 289.261719 C 888.898438 288.816406 887.761719 289.222656 887.3125 290.183594 C 885.164062 294.765625 882.933594 299.3125 880.613281 303.816406 C 880.128906 304.761719 880.5 305.910156 881.433594 306.394531 C 882.378906 306.875 883.527344 306.507812 884.007812 305.574219 Z M 897.027344 277.804688 C 899.035156 273.109375 900.953125 268.375 902.796875 263.613281 C 903.179688 262.628906 902.691406 261.519531 901.707031 261.140625 C 900.722656 260.757812 899.621094 261.25 899.238281 262.230469 C 897.40625 266.957031 895.496094 271.648438 893.511719 276.3125 C 893.097656 277.28125 893.550781 278.40625 894.523438 278.816406 C 895.496094 279.230469 896.613281 278.777344 897.027344 277.804688 Z M 908.109375 249.246094 C 909.808594 244.4375 911.433594 239.601562 912.996094 234.738281 C 913.320312 233.738281 912.769531 232.65625 911.757812 232.335938 C 910.75 232.011719 909.679688 232.5625 909.355469 233.570312 C 907.804688 238.394531 906.191406 243.199219 904.507812 247.980469 C 904.15625 248.96875 904.675781 250.0625 905.671875 250.414062 C 906.667969 250.761719 907.753906 250.238281 908.109375 249.246094 Z M 917.480469 220.105469 C 918.914062 215.21875 920.292969 210.308594 921.609375 205.382812 C 921.878906 204.355469 921.28125 203.3125 920.253906 203.035156 C 919.234375 202.761719 918.191406 203.363281 917.917969 204.386719 C 916.605469 209.289062 915.234375 214.175781 913.816406 219.03125 C 913.515625 220.042969 914.101562 221.109375 915.113281 221.402344 C 916.125 221.699219 917.191406 221.117188 917.480469 220.105469 Z M 925.414062 190.5625 C 926.621094 185.613281 927.785156 180.65625 928.910156 175.675781 C 929.140625 174.648438 928.5 173.621094 927.464844 173.394531 C 926.4375 173.164062 925.414062 173.808594 925.183594 174.832031 C 924.0625 179.789062 922.90625 184.730469 921.695312 189.652344 C 921.441406 190.679688 922.070312 191.714844 923.097656 191.964844 C 924.121094 192.210938 925.160156 191.589844 925.414062 190.5625 Z M 932.152344 160.734375 C 933.195312 155.753906 934.199219 150.757812 935.171875 145.757812 C 935.375 144.722656 934.699219 143.71875 933.664062 143.511719 C 932.621094 143.3125 931.617188 143.988281 931.421875 145.027344 C 930.453125 150.015625 929.449219 154.988281 928.414062 159.960938 C 928.199219 160.988281 928.859375 162.007812 929.894531 162.222656 C 930.929688 162.4375 931.941406 161.769531 932.152344 160.734375 Z M 938.003906 130.738281 C 938.914062 125.730469 939.800781 120.710938 940.667969 115.691406 C 940.84375 114.648438 940.144531 113.664062 939.105469 113.484375 C 938.0625 113.300781 937.074219 113.996094 936.898438 115.042969 C 936.03125 120.050781 935.148438 125.054688 934.238281 130.050781 C 934.046875 131.09375 934.738281 132.089844 935.777344 132.273438 C 936.8125 132.464844 937.8125 131.777344 938.003906 130.738281 Z M 943.203125 100.628906 C 944.03125 95.605469 944.851562 90.578125 945.648438 85.542969 C 945.816406 84.5 945.113281 83.519531 944.0625 83.359375 C 943.019531 83.191406 942.046875 83.90625 941.878906 84.945312 C 941.074219 89.964844 940.261719 94.984375 939.433594 100 C 939.257812 101.042969 939.964844 102.03125 941.003906 102.199219 C 942.046875 102.367188 943.039062 101.671875 943.203125 100.628906 Z M 948.039062 70.457031 C 948.828125 65.421875 949.609375 60.390625 950.390625 55.363281 C 950.558594 54.324219 949.839844 53.347656 948.800781 53.179688 C 947.753906 53.019531 946.78125 53.730469 946.613281 54.773438 C 945.832031 59.808594 945.050781 64.832031 944.261719 69.867188 C 944.09375 70.910156 944.8125 71.882812 945.855469 72.050781 C 946.898438 72.210938 947.871094 71.5 948.039062 70.457031 Z M 952.757812 40.277344 C 953.550781 35.242188 954.347656 30.21875 955.152344 25.199219 C 955.320312 24.15625 954.613281 23.175781 953.574219 23.007812 C 952.527344 22.839844 951.550781 23.542969 951.378906 24.585938 C 950.566406 29.613281 949.773438 34.648438 948.980469 39.679688 C 948.8125 40.722656 949.527344 41.703125 950.566406 41.871094 C 951.609375 42.03125 952.589844 41.320312 952.753906 40.277344 L 952.757812 40.277344 " fill-opacity="1" fill-rule="nonzero"/><path fill="#d58c36" d="M 957.648438 10 C 958.0625 7.484375 958.492188 4.972656 958.917969 2.46875 C 959.097656 1.425781 958.394531 0.445312 957.355469 0.261719 C 956.316406 0.0820312 955.328125 0.78125 955.152344 1.820312 C 954.722656 4.335938 954.292969 6.851562 953.871094 9.371094 C 953.703125 10.410156 954.398438 11.394531 955.441406 11.570312 C 956.484375 11.746094 957.472656 11.039062 957.648438 10 " fill-opacity="1" fill-rule="nonzero"/><path fill="#d58c36" d="M 696.484375 2.773438 C 697.320312 5.1875 698.175781 7.59375 699.058594 9.988281 C 699.429688 10.980469 700.523438 11.484375 701.511719 11.125 C 702.507812 10.753906 703.015625 9.660156 702.644531 8.671875 C 701.777344 6.300781 700.929688 3.914062 700.101562 1.527344 C 699.75 0.519531 698.664062 -0.0078125 697.664062 0.34375 C 696.667969 0.691406 696.140625 1.777344 696.484375 2.773438 " fill-opacity="1" fill-rule="nonzero"/><path fill="#d58c36" d="M 704.617188 24.289062 C 706.554688 29.015625 708.578125 33.710938 710.6875 38.371094 C 711.121094 39.328125 712.253906 39.757812 713.210938 39.320312 C 714.179688 38.882812 714.609375 37.753906 714.171875 36.785156 C 712.082031 32.171875 710.074219 27.523438 708.15625 22.835938 C 707.75 21.855469 706.640625 21.390625 705.65625 21.789062 C 704.683594 22.191406 704.21875 23.3125 704.617188 24.289062 Z M 717.257812 52.214844 C 719.535156 56.792969 721.886719 61.332031 724.328125 65.820312 C 724.824219 66.753906 725.988281 67.097656 726.914062 66.597656 C 727.84375 66.09375 728.1875 64.925781 727.691406 64.003906 C 725.277344 59.550781 722.9375 55.050781 720.6875 50.511719 C 720.21875 49.570312 719.066406 49.191406 718.128906 49.652344 C 717.175781 50.121094 716.792969 51.265625 717.257812 52.214844 Z M 731.859375 79.175781 C 734.445312 83.585938 737.113281 87.945312 739.859375 92.261719 C 740.425781 93.15625 741.605469 93.414062 742.492188 92.847656 C 743.382812 92.277344 743.652344 91.105469 743.082031 90.210938 C 740.363281 85.933594 737.71875 81.609375 735.152344 77.238281 C 734.625 76.335938 733.449219 76.027344 732.539062 76.558594 C 731.628906 77.097656 731.320312 78.261719 731.859375 79.175781 Z M 748.304688 105.0625 C 751.183594 109.273438 754.148438 113.449219 757.175781 117.566406 C 757.804688 118.417969 758.996094 118.605469 759.851562 117.96875 C 760.703125 117.347656 760.878906 116.152344 760.253906 115.304688 C 757.253906 111.214844 754.316406 107.085938 751.453125 102.898438 C 750.851562 102.035156 749.664062 101.8125 748.800781 102.40625 C 747.925781 103.003906 747.703125 104.1875 748.304688 105.0625 Z M 766.472656 129.765625 C 769.644531 133.773438 772.878906 137.734375 776.179688 141.640625 C 776.863281 142.449219 778.074219 142.542969 778.875 141.863281 C 779.679688 141.183594 779.78125 139.980469 779.097656 139.171875 C 775.828125 135.304688 772.617188 131.378906 769.472656 127.398438 C 768.824219 126.570312 767.621094 126.421875 766.792969 127.082031 C 765.957031 127.734375 765.820312 128.9375 766.472656 129.765625 Z M 786.289062 153.1875 C 789.722656 156.96875 793.222656 160.703125 796.785156 164.375 C 797.511719 165.132812 798.726562 165.148438 799.480469 164.414062 C 800.242188 163.679688 800.261719 162.46875 799.527344 161.714844 C 795.996094 158.078125 792.523438 154.378906 789.121094 150.613281 C 788.410156 149.832031 787.207031 149.773438 786.425781 150.484375 C 785.636719 151.191406 785.582031 152.402344 786.289062 153.1875 Z M 807.652344 175.203125 C 811.335938 178.753906 815.082031 182.242188 818.894531 185.648438 C 819.675781 186.359375 820.882812 186.292969 821.589844 185.511719 C 822.292969 184.726562 822.234375 183.515625 821.445312 182.808594 C 817.675781 179.429688 813.957031 175.96875 810.304688 172.445312 C 809.542969 171.722656 808.332031 171.738281 807.605469 172.503906 C 806.871094 173.257812 806.890625 174.46875 807.652344 175.203125 Z M 830.476562 195.714844 C 834.40625 199.003906 838.382812 202.21875 842.421875 205.371094 C 843.25 206.011719 844.449219 205.863281 845.101562 205.035156 C 845.746094 204.207031 845.605469 203.003906 844.769531 202.351562 C 840.769531 199.238281 836.828125 196.042969 832.9375 192.789062 C 832.125 192.109375 830.921875 192.210938 830.242188 193.023438 C 829.566406 193.832031 829.671875 195.035156 830.476562 195.714844 Z M 854.691406 214.585938 C 858.84375 217.597656 863.035156 220.523438 867.285156 223.371094 C 868.152344 223.960938 869.34375 223.726562 869.933594 222.851562 C 870.527344 221.972656 870.285156 220.785156 869.410156 220.195312 C 865.207031 217.371094 861.042969 214.472656 856.933594 211.492188 C 856.082031 210.878906 854.882812 211.0625 854.265625 211.921875 C 853.640625 212.777344 853.835938 213.972656 854.691406 214.585938 Z M 880.183594 231.695312 C 884.535156 234.390625 888.945312 237.007812 893.390625 239.53125 C 894.3125 240.054688 895.476562 239.738281 896 238.816406 C 896.511719 237.902344 896.195312 236.734375 895.28125 236.214844 C 890.875 233.707031 886.511719 231.117188 882.207031 228.441406 C 881.304688 227.882812 880.128906 228.164062 879.570312 229.058594 C 879.019531 229.960938 879.289062 231.136719 880.183594 231.695312 Z M 906.875 246.875 C 911.425781 249.242188 916.011719 251.515625 920.632812 253.695312 C 921.59375 254.144531 922.730469 253.734375 923.175781 252.785156 C 923.625 251.824219 923.222656 250.683594 922.265625 250.238281 C 917.6875 248.078125 913.148438 245.820312 908.636719 243.484375 C 907.707031 243 906.550781 243.363281 906.066406 244.292969 C 905.574219 245.234375 905.945312 246.390625 906.875 246.875 Z M 934.648438 259.976562 C 939.355469 261.980469 944.109375 263.878906 948.890625 265.699219 C 949.878906 266.070312 950.988281 265.570312 951.363281 264.582031 C 951.734375 263.59375 951.238281 262.492188 950.25 262.121094 C 945.519531 260.332031 940.808594 258.441406 936.140625 256.457031 C 935.171875 256.046875 934.054688 256.5 933.636719 257.46875 C 933.226562 258.441406 933.671875 259.566406 934.648438 259.976562 Z M 963.355469 270.832031 C 968.21875 272.445312 973.105469 273.964844 978.027344 275.371094 C 979.039062 275.660156 980.101562 275.074219 980.394531 274.054688 C 980.679688 273.042969 980.09375 271.988281 979.089844 271.691406 C 974.210938 270.304688 969.375 268.800781 964.566406 267.207031 C 963.570312 266.875 962.488281 267.414062 962.152344 268.421875 C 961.816406 269.417969 962.367188 270.496094 963.355469 270.832031 Z M 992.871094 279.285156 C 997.828125 280.480469 1002.835938 281.578125 1007.859375 282.554688 C 1008.890625 282.761719 1009.898438 282.082031 1010.105469 281.046875 C 1010.300781 280.011719 1009.628906 279.007812 1008.597656 278.808594 C 1003.628906 277.832031 998.679688 276.75 993.765625 275.566406 C 992.742188 275.316406 991.707031 275.949219 991.457031 276.972656 C 991.207031 278 991.84375 279.035156 992.871094 279.285156 Z M 1022.96875 285.175781 C 1028.015625 285.929688 1033.085938 286.582031 1038.175781 287.113281 C 1039.230469 287.226562 1040.171875 286.460938 1040.28125 285.417969 C 1040.394531 284.363281 1039.628906 283.425781 1038.578125 283.308594 C 1033.546875 282.78125 1028.53125 282.144531 1023.535156 281.390625 C 1022.492188 281.234375 1021.519531 281.953125 1021.363281 282.992188 C 1021.203125 284.039062 1021.921875 285.015625 1022.96875 285.175781 Z M 1053.449219 288.367188 C 1058.550781 288.671875 1063.667969 288.859375 1068.792969 288.929688 C 1069.84375 288.941406 1070.710938 288.097656 1070.722656 287.039062 C 1070.738281 285.984375 1069.894531 285.117188 1068.839844 285.109375 C 1063.769531 285.035156 1058.71875 284.847656 1053.683594 284.550781 C 1052.621094 284.496094 1051.71875 285.292969 1051.664062 286.347656 C 1051.597656 287.402344 1052.398438 288.304688 1053.449219 288.367188 Z M 1084.152344 288.777344 C 1089.242188 288.613281 1094.367188 288.328125 1099.484375 287.917969 C 1100.535156 287.835938 1101.320312 286.917969 1101.234375 285.863281 C 1101.152344 284.8125 1100.230469 284.027344 1099.175781 284.113281 C 1094.113281 284.511719 1089.066406 284.792969 1084.019531 284.960938 C 1082.96875 285 1082.136719 285.871094 1082.175781 286.933594 C 1082.214844 287.988281 1083.089844 288.8125 1084.152344 288.777344 Z M 1114.757812 286.347656 C 1119.808594 285.703125 1124.878906 284.949219 1129.941406 284.066406 C 1130.984375 283.886719 1131.683594 282.890625 1131.496094 281.859375 C 1131.3125 280.8125 1130.324219 280.113281 1129.289062 280.300781 C 1124.273438 281.175781 1119.277344 281.921875 1114.28125 282.554688 C 1113.230469 282.6875 1112.484375 283.644531 1112.625 284.691406 C 1112.753906 285.742188 1113.714844 286.480469 1114.757812 286.347656 Z M 1145.011719 281.082031 C 1149.96875 279.976562 1154.945312 278.753906 1159.921875 277.410156 C 1160.9375 277.132812 1161.535156 276.089844 1161.257812 275.066406 C 1160.984375 274.046875 1159.933594 273.441406 1158.914062 273.722656 C 1154.003906 275.054688 1149.09375 276.257812 1144.183594 277.347656 C 1143.148438 277.578125 1142.496094 278.605469 1142.726562 279.628906 C 1142.953125 280.664062 1143.976562 281.308594 1145.011719 281.082031 Z M 1174.640625 273.058594 C 1175.328125 272.847656 1176.011719 272.621094 1176.699219 272.398438 C 1180.882812 271.027344 1185.042969 269.566406 1189.160156 268.011719 C 1190.140625 267.636719 1190.652344 266.539062 1190.265625 265.550781 C 1189.894531 264.5625 1188.792969 264.058594 1187.808594 264.441406 C 1183.746094 265.96875 1179.644531 267.414062 1175.515625 268.765625 C 1174.835938 268.988281 1174.15625 269.203125 1173.476562 269.417969 C 1172.464844 269.742188 1171.917969 270.816406 1172.246094 271.820312 C 1172.5625 272.828125 1173.632812 273.386719 1174.648438 273.058594 Z M 1203.402344 262.230469 C 1208.097656 260.191406 1212.738281 258.03125 1217.324219 255.765625 C 1218.277344 255.300781 1218.660156 254.152344 1218.191406 253.203125 C 1217.726562 252.261719 1216.585938 251.871094 1215.640625 252.335938 C 1211.097656 254.582031 1206.503906 256.707031 1201.871094 258.726562 C 1200.902344 259.148438 1200.457031 260.273438 1200.875 261.242188 C 1201.292969 262.214844 1202.421875 262.652344 1203.402344 262.230469 Z M 1230.941406 248.648438 C 1235.414062 246.175781 1239.84375 243.59375 1244.210938 240.917969 C 1245.109375 240.371094 1245.386719 239.195312 1244.839844 238.292969 C 1244.289062 237.398438 1243.113281 237.109375 1242.210938 237.660156 C 1237.882812 240.304688 1233.515625 242.859375 1229.085938 245.300781 C 1228.164062 245.8125 1227.828125 246.976562 1228.34375 247.898438 C 1228.855469 248.824219 1230.007812 249.160156 1230.941406 248.648438 Z M 1257.132812 232.636719 C 1261.371094 229.785156 1265.554688 226.839844 1269.683594 223.8125 C 1270.542969 223.1875 1270.71875 221.996094 1270.105469 221.144531 C 1269.46875 220.289062 1268.277344 220.113281 1267.429688 220.734375 C 1263.34375 223.726562 1259.199219 226.632812 1254.984375 229.460938 C 1254.121094 230.046875 1253.886719 231.238281 1254.472656 232.113281 C 1255.058594 232.992188 1256.246094 233.226562 1257.132812 232.636719 Z M 1281.882812 214.511719 C 1285.890625 211.324219 1289.832031 208.074219 1293.722656 204.746094 C 1294.519531 204.054688 1294.617188 202.851562 1293.925781 202.050781 C 1293.246094 201.253906 1292.035156 201.160156 1291.230469 201.839844 C 1287.382812 205.136719 1283.476562 208.359375 1279.519531 211.511719 C 1278.6875 212.171875 1278.546875 213.375 1279.199219 214.207031 C 1279.855469 215.023438 1281.0625 215.164062 1281.882812 214.511719 Z M 1305.195312 194.550781 C 1308.949219 191.09375 1312.648438 187.5625 1316.292969 183.972656 C 1317.046875 183.230469 1317.046875 182.015625 1316.3125 181.273438 C 1315.566406 180.515625 1314.355469 180.507812 1313.601562 181.253906 C 1309.992188 184.8125 1306.320312 188.308594 1302.601562 191.746094 C 1301.816406 192.453125 1301.773438 193.664062 1302.484375 194.441406 C 1303.207031 195.222656 1304.410156 195.269531 1305.195312 194.550781 Z M 1327.023438 173.015625 C 1328.167969 171.8125 1329.292969 170.601562 1330.429688 169.390625 C 1332.78125 166.855469 1335.101562 164.300781 1337.394531 161.722656 C 1338.09375 160.9375 1338.027344 159.726562 1337.234375 159.027344 C 1336.445312 158.328125 1335.242188 158.394531 1334.539062 159.1875 C 1332.269531 161.738281 1329.957031 164.273438 1327.625 166.789062 C 1326.507812 167.992188 1325.382812 169.195312 1324.242188 170.386719 C 1323.515625 171.152344 1323.550781 172.363281 1324.328125 173.089844 C 1325.089844 173.816406 1326.304688 173.78125 1327.023438 173.015625 Z M 1347.410156 150.128906 C 1350.703125 146.214844 1353.929688 142.253906 1357.09375 138.257812 C 1357.757812 137.425781 1357.621094 136.226562 1356.789062 135.574219 C 1355.96875 134.910156 1354.757812 135.050781 1354.113281 135.882812 C 1350.953125 139.851562 1347.746094 143.78125 1344.488281 147.667969 C 1343.8125 148.480469 1343.910156 149.683594 1344.71875 150.359375 C 1345.53125 151.039062 1346.742188 150.9375 1347.410156 150.128906 Z M 1366.464844 126.132812 C 1369.539062 122.050781 1372.550781 117.933594 1375.523438 113.777344 C 1376.136719 112.921875 1375.933594 111.726562 1375.074219 111.113281 C 1374.21875 110.496094 1373.027344 110.691406 1372.410156 111.558594 C 1369.453125 115.6875 1366.453125 119.777344 1363.40625 123.832031 C 1362.773438 124.679688 1362.949219 125.875 1363.789062 126.503906 C 1364.625 127.140625 1365.828125 126.972656 1366.464844 126.132812 Z M 1384.285156 101.214844 C 1387.164062 97.003906 1389.984375 92.753906 1392.773438 88.488281 C 1393.351562 87.601562 1393.097656 86.414062 1392.210938 85.839844 C 1391.339844 85.261719 1390.144531 85.511719 1389.574219 86.386719 C 1386.796875 90.648438 1383.976562 94.878906 1381.132812 99.074219 C 1380.527344 99.9375 1380.75 101.132812 1381.625 101.726562 C 1382.503906 102.3125 1383.6875 102.09375 1384.285156 101.214844 Z M 1401.011719 75.578125 C 1403.714844 71.257812 1406.378906 66.90625 1409.007812 62.53125 C 1409.550781 61.628906 1409.257812 60.457031 1408.355469 59.90625 C 1407.453125 59.367188 1406.277344 59.652344 1405.734375 60.558594 C 1403.109375 64.917969 1400.460938 69.242188 1397.769531 73.550781 C 1397.207031 74.441406 1397.480469 75.625 1398.375 76.1875 C 1399.269531 76.746094 1400.445312 76.472656 1401.011719 75.578125 Z M 1416.789062 49.359375 C 1419.351562 44.949219 1421.878906 40.523438 1424.378906 36.078125 C 1424.898438 35.152344 1424.574219 33.988281 1423.652344 33.46875 C 1422.726562 32.957031 1421.5625 33.28125 1421.039062 34.203125 C 1418.554688 38.632812 1416.046875 43.050781 1413.492188 47.4375 C 1412.960938 48.347656 1413.265625 49.527344 1414.179688 50.054688 C 1415.09375 50.585938 1416.261719 50.269531 1416.789062 49.359375 " fill-opacity="1" fill-rule="nonzero"/><path fill="#d58c36" d="M 1431.851562 22.585938 C 1433.074219 20.34375 1434.296875 18.101562 1435.503906 15.847656 C 1436.003906 14.914062 1435.65625 13.761719 1434.726562 13.253906 C 1433.796875 12.757812 1432.644531 13.105469 1432.144531 14.035156 C 1430.933594 16.277344 1429.722656 18.511719 1428.503906 20.746094 C 1427.996094 21.675781 1428.332031 22.839844 1429.261719 23.347656 C 1430.183594 23.851562 1431.355469 23.503906 1431.851562 22.585938 " fill-opacity="1" fill-rule="nonzero"/><path fill="#d58c36" d="M 213.929688 2.144531 C 213.929688 42.394531 212.179688 234.757812 212.179688 378.519531 C 212.179688 448.539062 212.589844 506.996094 213.832031 530.882812 C 213.886719 531.929688 214.78125 532.746094 215.839844 532.691406 C 216.894531 532.636719 217.703125 531.738281 217.648438 530.683594 C 216.417969 507.007812 216 448.5 216 378.519531 C 216 234.773438 217.753906 42.449219 217.753906 2.144531 C 217.753906 1.089844 216.894531 0.238281 215.839844 0.238281 C 214.785156 0.238281 213.929688 1.089844 213.929688 2.144531 " fill-opacity="1" fill-rule="nonzero"/><path fill="#d58c36" d="M 214.332031 535.003906 L 214.332031 535.011719 Z M 177.472656 577.390625 C 179.070312 578.613281 180.820312 579.972656 182.617188 581.363281 C 187.683594 585.296875 194.621094 590.675781 196.773438 591.878906 C 199.144531 593.195312 200.265625 595.992188 199.457031 598.589844 C 198.765625 600.804688 196.816406 609.929688 195.25 617.261719 C 194.816406 619.273438 194.394531 621.246094 194 623.085938 C 195.726562 621.882812 197.8125 620.433594 200.269531 618.738281 C 205.316406 615.253906 211.605469 610.917969 213.027344 609.738281 C 214.863281 608.214844 217.457031 607.984375 219.542969 609.175781 C 222.53125 610.894531 233.761719 617.535156 240.972656 622.011719 C 240.089844 618.480469 239.15625 614.640625 238.273438 611.003906 C 236.738281 604.6875 235.285156 598.71875 234.65625 596.535156 C 234.101562 594.621094 234.585938 592.550781 235.929688 591.074219 C 238.421875 588.347656 247.042969 580.882812 254.207031 574.914062 C 244.300781 573.75 235.597656 572.347656 232.820312 571.890625 C 230.859375 571.558594 229.207031 570.238281 228.457031 568.402344 C 227.597656 566.308594 226.148438 562.976562 224.441406 559.054688 C 221.953125 553.332031 218.996094 546.527344 216.484375 540.398438 C 211.746094 550.566406 202.539062 569.660156 202.058594 570.660156 C 201.277344 572.277344 199.773438 573.441406 198.003906 573.796875 C 197.46875 573.902344 186.957031 575.972656 177.472656 577.390625 Z M 190.125 637.921875 C 188.476562 637.921875 186.824219 637.464844 185.335938 636.527344 C 182.078125 634.476562 180.535156 630.714844 181.40625 626.9375 C 182.070312 624.035156 183.03125 619.550781 184.03125 614.863281 C 185.457031 608.203125 186.585938 602.957031 187.417969 599.410156 C 184.519531 597.332031 180.566406 594.289062 175.589844 590.429688 C 171.773438 587.472656 168.171875 584.675781 166.011719 583.152344 C 162.886719 580.9375 161.464844 577.152344 162.386719 573.511719 C 163.308594 569.894531 166.34375 567.269531 170.121094 566.824219 C 177.515625 565.941406 188.015625 564.027344 192.980469 563.085938 C 196.542969 555.667969 206.625 534.675781 208.378906 530.515625 C 209.804688 527.136719 213.148438 524.945312 216.71875 525.050781 C 220.417969 525.105469 223.679688 527.386719 225.027344 530.867188 C 227.753906 537.917969 231.75 547.101562 234.960938 554.480469 C 236.039062 556.964844 237.015625 559.214844 237.8125 561.078125 C 242.847656 561.875 251.953125 563.222656 261.289062 564.160156 C 264.921875 564.527344 267.945312 567.023438 268.988281 570.515625 C 270.03125 574.011719 268.875 577.742188 266.046875 580.03125 C 259.144531 585.617188 250.710938 592.867188 246.566406 596.707031 C 247.3125 599.640625 248.316406 603.761719 249.417969 608.296875 C 250.84375 614.152344 252.394531 620.527344 253.625 625.265625 C 254.582031 628.96875 253.1875 632.753906 250.066406 634.914062 C 246.945312 637.082031 242.898438 637.058594 239.761719 634.851562 C 236.765625 632.746094 223.957031 625.058594 217.066406 621.015625 C 214.636719 622.746094 211.152344 625.160156 206.785156 628.179688 C 202.242188 631.3125 197.085938 634.875 195.804688 635.902344 C 194.125 637.246094 192.125 637.921875 190.125 637.921875 " fill-opacity="1" fill-rule="nonzero"/><path fill="#edc547" d="M 187.417969 599.410156 C 187.09375 600.796875 186.707031 602.503906 186.296875 604.386719 C 190.746094 602.105469 195.179688 599.792969 199.605469 597.464844 C 199.832031 595.21875 198.804688 593.003906 196.773438 591.878906 C 195.007812 590.890625 190.023438 587.097656 185.492188 583.59375 C 181.753906 585.535156 178.011719 587.472656 174.273438 589.410156 C 174.714844 589.757812 175.144531 590.085938 175.589844 590.429688 C 180.566406 594.289062 184.519531 597.332031 187.417969 599.410156 " fill-opacity="1" fill-rule="nonzero"/><path fill="#edc547" d="M 232.820312 571.890625 C 234.535156 572.171875 238.519531 572.8125 243.644531 573.542969 C 249.300781 570.402344 254.957031 567.242188 260.605469 564.089844 C 251.511719 563.152344 242.722656 561.851562 237.8125 561.078125 C 237.359375 560.003906 236.828125 558.785156 236.269531 557.492188 C 232.851562 559.222656 229.433594 560.957031 226.027344 562.699219 C 227.023438 565.015625 227.882812 567 228.457031 568.402344 C 229.207031 570.238281 230.859375 571.558594 232.820312 571.890625 " fill-opacity="1" fill-rule="nonzero"/><path fill="#edc547" d="M 266.699219 579.351562 C 268.558594 577.464844 269.472656 574.921875 269.242188 572.3125 C 258.34375 578.417969 247.425781 584.492188 236.476562 590.511719 L 235.929688 591.074219 C 234.644531 592.484375 234.175781 594.429688 234.617188 596.269531 C 245.300781 590.605469 255.996094 584.972656 266.699219 579.351562 " fill-opacity="1" fill-rule="nonzero"/><path fill="#edc547" d="M 195.195312 617.507812 L 195.25 617.261719 C 195.609375 615.5625 195.996094 613.757812 196.378906 611.976562 C 192.007812 614.242188 187.617188 616.472656 183.214844 618.683594 C 182.726562 620.964844 182.269531 623.074219 181.871094 624.867188 C 186.304688 622.394531 190.746094 619.941406 195.195312 617.507812 " fill-opacity="1" fill-rule="nonzero"/><path fill="#feee96" d="M 207.78125 538.71875 C 210.523438 532.460938 213.578125 526.292969 221.335938 526.460938 C 219.96875 525.609375 218.40625 525.074219 216.71875 525.050781 C 213.148438 524.945312 209.804688 527.136719 208.378906 530.515625 C 206.625 534.675781 196.542969 555.667969 192.980469 563.085938 C 188.015625 564.027344 177.515625 565.941406 170.121094 566.824219 C 166.644531 567.238281 163.871094 569.542969 162.722656 572.722656 C 169.546875 567.675781 177.472656 569.207031 195.605469 565.628906 C 198.015625 560.019531 203.78125 547.878906 207.78125 538.71875 " fill-opacity="1" fill-rule="nonzero"/><path fill="#feee96" d="M 238.78125 563.308594 C 250.59375 565.847656 264.84375 564.839844 269.082031 571.167969 L 268.988281 570.515625 C 267.945312 567.023438 264.921875 564.527344 261.289062 564.160156 C 252.296875 563.253906 242.945312 561.878906 237.8125 561.078125 C 238.167969 561.699219 238.480469 562.65625 238.78125 563.308594 " fill-opacity="1" fill-rule="nonzero"/><path fill="#d58c36" d="M 519.324219 2.144531 C 519.324219 42.398438 517.574219 313.609375 517.574219 509.015625 C 517.574219 604.183594 517.984375 681.3125 519.226562 705.21875 C 519.28125 706.273438 520.179688 707.085938 521.234375 707.035156 C 522.289062 706.980469 523.097656 706.078125 523.042969 705.027344 C 521.8125 681.367188 521.398438 604.144531 521.398438 509.015625 C 521.398438 313.621094 523.148438 42.4375 523.148438 2.144531 C 523.148438 1.089844 522.292969 0.238281 521.234375 0.238281 C 520.183594 0.238281 519.324219 1.089844 519.324219 2.144531 " fill-opacity="1" fill-rule="nonzero"/><path fill="#d58c36" d="M 519.726562 707.015625 L 519.730469 707.027344 Z M 482.871094 749.410156 C 484.464844 750.628906 486.21875 751.992188 488.015625 753.378906 C 493.082031 757.308594 500.019531 762.6875 502.175781 763.890625 C 504.542969 765.210938 505.660156 768.015625 504.855469 770.605469 C 504.164062 772.816406 502.214844 781.945312 500.648438 789.277344 C 500.214844 791.289062 499.792969 793.265625 499.398438 795.097656 C 501.125 793.894531 503.210938 792.445312 505.664062 790.753906 C 510.714844 787.269531 517.003906 782.929688 518.425781 781.753906 C 520.261719 780.226562 522.859375 779.996094 524.941406 781.191406 C 527.929688 782.90625 539.160156 789.558594 546.367188 794.027344 C 545.488281 790.496094 544.554688 786.65625 543.671875 783.015625 C 542.132812 776.703125 540.6875 770.742188 540.054688 768.550781 C 539.5 766.636719 539.980469 764.566406 541.328125 763.089844 C 543.820312 760.367188 552.441406 752.898438 559.605469 746.9375 C 549.695312 745.773438 540.996094 744.363281 538.21875 743.902344 C 536.253906 743.570312 534.601562 742.253906 533.851562 740.414062 C 532.996094 738.324219 531.546875 734.992188 529.839844 731.066406 C 527.351562 725.34375 524.394531 718.546875 521.882812 712.414062 C 517.148438 722.578125 507.9375 741.679688 507.457031 742.675781 C 506.675781 744.300781 505.171875 745.457031 503.402344 745.8125 C 502.867188 745.917969 492.355469 747.988281 482.871094 749.410156 Z M 495.523438 809.9375 C 493.875 809.9375 492.21875 809.476562 490.730469 808.542969 C 487.476562 806.496094 485.933594 802.730469 486.804688 798.953125 C 487.472656 796.054688 488.429688 791.574219 489.433594 786.875 C 490.851562 780.21875 491.984375 774.980469 492.816406 771.421875 C 489.917969 769.347656 485.964844 766.304688 480.988281 762.441406 C 477.171875 759.484375 473.570312 756.691406 471.410156 755.164062 C 468.28125 752.953125 466.863281 749.164062 467.789062 745.527344 C 468.707031 741.917969 471.742188 739.289062 475.519531 738.835938 C 482.914062 737.957031 493.414062 736.042969 498.375 735.097656 C 501.945312 727.683594 512.019531 706.6875 513.777344 702.527344 C 515.203125 699.148438 518.546875 696.957031 522.117188 697.066406 C 525.816406 697.121094 529.074219 699.402344 530.425781 702.882812 C 533.152344 709.929688 537.148438 719.117188 540.359375 726.503906 C 541.4375 728.976562 542.414062 731.230469 543.210938 733.089844 C 548.242188 733.886719 557.351562 735.238281 566.6875 736.171875 C 570.320312 736.539062 573.34375 739.039062 574.382812 742.53125 C 575.429688 746.023438 574.273438 749.753906 571.445312 752.046875 C 564.546875 757.636719 556.109375 764.882812 551.960938 768.71875 C 552.710938 771.660156 553.710938 775.773438 554.8125 780.308594 C 556.238281 786.164062 557.789062 792.539062 559.019531 797.28125 C 559.980469 800.980469 558.585938 804.765625 555.464844 806.929688 C 552.339844 809.09375 548.296875 809.074219 545.160156 806.863281 C 542.164062 804.757812 529.355469 797.082031 522.464844 793.027344 C 520.035156 794.761719 516.546875 797.175781 512.179688 800.195312 C 507.636719 803.332031 502.484375 806.890625 501.203125 807.914062 C 499.519531 809.257812 497.527344 809.9375 495.523438 809.9375 " fill-opacity="1" fill-rule="nonzero"/><path fill="#edc547" d="M 492.816406 771.421875 C 492.492188 772.808594 492.109375 774.527344 491.691406 776.402344 C 496.144531 774.121094 500.574219 771.808594 505 769.476562 C 505.230469 767.230469 504.199219 765.019531 502.175781 763.890625 C 500.40625 762.902344 495.425781 759.109375 490.890625 755.609375 C 487.152344 757.546875 483.410156 759.484375 479.671875 761.425781 C 480.113281 761.769531 480.539062 762.097656 480.988281 762.441406 C 485.964844 766.304688 489.917969 769.347656 492.816406 771.421875 " fill-opacity="1" fill-rule="nonzero"/><path fill="#edc547" d="M 538.21875 743.902344 C 539.933594 744.1875 543.917969 744.828125 549.042969 745.554688 C 554.699219 742.417969 560.355469 739.257812 566.003906 736.101562 C 556.910156 735.167969 548.121094 733.867188 543.210938 733.089844 C 542.753906 732.019531 542.226562 730.800781 541.667969 729.503906 C 538.253906 731.246094 534.832031 732.96875 531.421875 734.714844 C 532.425781 737.03125 533.28125 739.015625 533.851562 740.414062 C 534.601562 742.253906 536.253906 743.570312 538.21875 743.902344 " fill-opacity="1" fill-rule="nonzero"/><path fill="#edc547" d="M 572.097656 751.367188 C 573.957031 749.488281 574.871094 746.9375 574.640625 744.324219 C 563.738281 750.429688 552.824219 756.503906 541.878906 762.527344 L 541.328125 763.089844 C 540.046875 764.5 539.570312 766.445312 540.011719 768.28125 C 550.695312 762.628906 561.394531 756.988281 572.097656 751.367188 " fill-opacity="1" fill-rule="nonzero"/><path fill="#edc547" d="M 500.597656 789.523438 L 500.648438 789.277344 C 501.007812 787.574219 501.394531 785.773438 501.777344 783.988281 C 497.40625 786.257812 493.015625 788.484375 488.613281 790.699219 C 488.125 792.976562 487.664062 795.089844 487.269531 796.882812 C 491.703125 794.410156 496.144531 791.957031 500.597656 789.523438 " fill-opacity="1" fill-rule="nonzero"/><path fill="#edc547" d="M 519.726562 707.015625 L 519.730469 707.027344 L 519.726562 707.015625 " fill-opacity="1" fill-rule="nonzero"/><path fill="#feee96" d="M 513.183594 710.734375 C 515.921875 704.476562 518.972656 698.308594 526.730469 698.476562 C 525.367188 697.625 523.800781 697.089844 522.117188 697.066406 C 518.546875 696.957031 515.203125 699.148438 513.777344 702.527344 C 512.019531 706.6875 501.945312 727.683594 498.375 735.097656 C 493.414062 736.042969 482.914062 737.957031 475.519531 738.835938 C 472.039062 739.25 469.269531 741.558594 468.121094 744.734375 C 474.945312 739.6875 482.871094 741.21875 501 737.644531 C 503.417969 732.035156 509.179688 719.890625 513.183594 710.734375 " fill-opacity="1" fill-rule="nonzero"/><path fill="#feee96" d="M 544.183594 735.320312 C 555.996094 737.863281 570.246094 736.851562 574.476562 743.183594 L 574.382812 742.53125 C 573.34375 739.039062 570.320312 736.539062 566.6875 736.171875 C 557.695312 735.265625 548.34375 733.894531 543.210938 733.089844 C 543.566406 733.710938 543.878906 734.664062 544.183594 735.320312 " fill-opacity="1" fill-rule="nonzero"/><path fill="#d58c36" d="M 1126.167969 2.144531 C 1126.167969 42.398438 1124.421875 280.742188 1124.421875 454.617188 C 1124.421875 539.300781 1124.835938 608.652344 1126.070312 632.546875 C 1126.128906 633.605469 1127.027344 634.417969 1128.074219 634.351562 C 1129.136719 634.300781 1129.945312 633.40625 1129.894531 632.347656 C 1128.660156 608.6875 1128.246094 539.265625 1128.246094 454.617188 C 1128.246094 280.757812 1129.992188 42.4375 1129.992188 2.144531 C 1129.992188 1.089844 1129.136719 0.238281 1128.085938 0.238281 C 1127.027344 0.238281 1126.167969 1.089844 1126.167969 2.144531 " fill-opacity="1" fill-rule="nonzero"/><path fill="#d58c36" d="M 1125.164062 636.9375 L 1125.164062 636.945312 Z M 1088.300781 679.324219 C 1089.90625 680.546875 1091.652344 681.902344 1093.449219 683.296875 C 1098.519531 687.230469 1105.449219 692.609375 1107.609375 693.8125 C 1109.980469 695.128906 1111.097656 697.933594 1110.285156 700.523438 C 1109.59375 702.738281 1107.648438 711.863281 1106.085938 719.195312 C 1105.652344 721.210938 1105.230469 723.179688 1104.832031 725.019531 C 1106.554688 723.816406 1108.648438 722.367188 1111.097656 720.671875 C 1116.152344 717.1875 1122.441406 712.851562 1123.859375 711.671875 C 1125.695312 710.148438 1128.292969 709.917969 1130.375 711.113281 C 1133.363281 712.828125 1144.597656 719.46875 1151.808594 723.945312 C 1150.921875 720.414062 1149.988281 716.574219 1149.109375 712.933594 C 1147.566406 706.621094 1146.121094 700.652344 1145.488281 698.46875 C 1144.929688 696.554688 1145.425781 694.484375 1146.761719 693.007812 C 1149.25 690.277344 1157.871094 682.816406 1165.039062 676.847656 C 1155.132812 675.683594 1146.433594 674.28125 1143.648438 673.824219 C 1141.691406 673.492188 1140.042969 672.175781 1139.292969 670.335938 C 1138.429688 668.246094 1136.976562 664.910156 1135.277344 660.988281 C 1132.785156 655.265625 1129.828125 648.460938 1127.316406 642.332031 C 1122.582031 652.5 1113.375 671.59375 1112.890625 672.597656 C 1112.117188 674.210938 1110.613281 675.375 1108.839844 675.730469 C 1108.304688 675.835938 1097.792969 677.90625 1088.300781 679.324219 Z M 1100.960938 739.859375 C 1099.3125 739.859375 1097.652344 739.398438 1096.164062 738.464844 C 1092.910156 736.410156 1091.371094 732.648438 1092.238281 728.871094 C 1092.910156 725.96875 1093.867188 721.492188 1094.867188 716.796875 C 1096.289062 710.136719 1097.425781 704.890625 1098.253906 701.34375 C 1095.351562 699.265625 1091.398438 696.226562 1086.425781 692.363281 C 1082.609375 689.40625 1079.011719 686.609375 1076.847656 685.085938 C 1073.722656 682.871094 1072.296875 679.085938 1073.222656 675.445312 C 1074.144531 671.828125 1077.179688 669.203125 1080.957031 668.757812 C 1088.347656 667.875 1098.847656 665.960938 1103.816406 665.019531 C 1107.375 657.601562 1117.449219 636.609375 1119.21875 632.449219 C 1120.640625 629.070312 1123.980469 626.878906 1127.550781 626.984375 C 1131.25 627.039062 1134.511719 629.320312 1135.859375 632.800781 C 1138.589844 639.851562 1142.578125 649.035156 1145.800781 656.414062 C 1146.871094 658.898438 1147.851562 661.148438 1148.648438 663.011719 C 1153.6875 663.808594 1162.785156 665.15625 1172.125 666.09375 C 1175.761719 666.457031 1178.78125 668.957031 1179.820312 672.449219 C 1180.863281 675.945312 1179.703125 679.675781 1176.882812 681.964844 C 1169.980469 687.550781 1161.546875 694.800781 1157.402344 698.636719 C 1158.152344 701.574219 1159.152344 705.695312 1160.246094 710.230469 C 1161.671875 716.082031 1163.21875 722.457031 1164.457031 727.199219 C 1165.410156 730.902344 1164.019531 734.6875 1160.898438 736.847656 C 1157.777344 739.015625 1153.730469 738.992188 1150.59375 736.785156 C 1147.597656 734.679688 1134.792969 726.996094 1127.902344 722.949219 C 1125.46875 724.679688 1121.980469 727.09375 1117.613281 730.113281 C 1113.070312 733.246094 1107.921875 736.808594 1106.636719 737.835938 C 1104.957031 739.175781 1102.960938 739.859375 1100.960938 739.859375 " fill-opacity="1" fill-rule="nonzero"/><path fill="#edc547" d="M 1098.253906 701.339844 C 1097.929688 702.726562 1097.546875 704.4375 1097.132812 706.320312 C 1101.585938 704.039062 1106.015625 701.722656 1110.4375 699.394531 C 1110.667969 697.148438 1109.640625 694.933594 1107.609375 693.808594 C 1105.847656 692.820312 1100.859375 689.03125 1096.328125 685.519531 C 1092.589844 687.464844 1088.851562 689.402344 1085.109375 691.34375 C 1085.546875 691.679688 1085.976562 692.015625 1086.429688 692.359375 C 1091.402344 696.222656 1095.355469 699.265625 1098.253906 701.339844 " fill-opacity="1" fill-rule="nonzero"/><path fill="#edc547" d="M 1143.664062 673.816406 C 1145.378906 674.101562 1149.363281 674.746094 1154.484375 675.476562 C 1160.136719 672.324219 1165.800781 669.175781 1171.445312 666.019531 C 1162.351562 665.074219 1153.5625 663.78125 1148.65625 663.007812 C 1148.195312 661.933594 1147.667969 660.71875 1147.105469 659.421875 C 1143.699219 661.15625 1140.277344 662.882812 1136.859375 664.632812 C 1137.867188 666.941406 1138.722656 668.929688 1139.296875 670.332031 C 1140.050781 672.171875 1141.695312 673.488281 1143.664062 673.816406 " fill-opacity="1" fill-rule="nonzero"/><path fill="#edc547" d="M 1177.527344 681.285156 C 1179.390625 679.398438 1180.3125 676.855469 1180.085938 674.242188 C 1169.175781 680.347656 1158.261719 686.421875 1147.3125 692.449219 L 1146.765625 693.003906 C 1145.484375 694.414062 1145.007812 696.363281 1145.445312 698.199219 C 1156.136719 692.539062 1166.832031 686.90625 1177.527344 681.285156 " fill-opacity="1" fill-rule="nonzero"/><path fill="#edc547" d="M 1106.03125 719.4375 L 1106.085938 719.191406 C 1106.453125 717.492188 1106.835938 715.691406 1107.21875 713.90625 C 1102.84375 716.175781 1098.453125 718.40625 1094.054688 720.617188 C 1093.5625 722.894531 1093.105469 725.007812 1092.703125 726.800781 C 1097.144531 724.324219 1101.585938 721.875 1106.03125 719.4375 " fill-opacity="1" fill-rule="nonzero"/><path fill="#feee96" d="M 1118.621094 640.652344 C 1121.355469 634.390625 1124.414062 628.222656 1132.167969 628.394531 C 1130.804688 627.542969 1129.242188 627.003906 1127.554688 626.984375 C 1123.984375 626.878906 1120.644531 629.066406 1119.21875 632.445312 C 1117.457031 636.605469 1107.378906 657.597656 1103.816406 665.019531 C 1098.851562 665.957031 1088.351562 667.875 1080.957031 668.757812 C 1077.480469 669.167969 1074.714844 671.476562 1073.566406 674.65625 C 1080.382812 669.605469 1088.308594 671.136719 1106.445312 667.558594 C 1108.859375 661.953125 1114.621094 649.808594 1118.621094 640.652344 " fill-opacity="1" fill-rule="nonzero"/><path fill="#feee96" d="M 1149.613281 665.238281 C 1161.433594 667.785156 1175.675781 666.773438 1179.914062 673.101562 L 1179.816406 672.449219 C 1178.78125 668.957031 1175.761719 666.457031 1172.128906 666.09375 C 1163.128906 665.1875 1153.78125 663.816406 1148.644531 663.011719 C 1149.003906 663.632812 1149.316406 664.582031 1149.613281 665.238281 " fill-opacity="1" fill-rule="nonzero"/><path fill="#d58c36" d="M 662.558594 2.144531 C 662.558594 42.382812 660.808594 234.695312 660.808594 378.449219 C 660.808594 448.5 661.21875 506.984375 662.460938 530.882812 C 662.515625 531.929688 663.414062 532.746094 664.46875 532.691406 C 665.523438 532.636719 666.335938 531.738281 666.28125 530.683594 C 665.046875 507 664.632812 448.464844 664.632812 378.449219 C 664.632812 234.710938 666.378906 42.4375 666.378906 2.144531 C 666.378906 1.089844 665.523438 0.238281 664.46875 0.238281 C 663.414062 0.238281 662.558594 1.089844 662.558594 2.144531 " fill-opacity="1" fill-rule="nonzero"/><path fill="#d58c36" d="M 663.320312 532.46875 L 663.320312 532.476562 Z M 635.847656 564.066406 C 637.039062 564.976562 638.34375 565.988281 639.683594 567.023438 C 643.460938 569.949219 648.632812 573.964844 650.234375 574.851562 C 652.003906 575.84375 652.835938 577.925781 652.238281 579.855469 C 651.722656 581.511719 650.265625 588.3125 649.097656 593.777344 C 648.777344 595.277344 648.464844 596.75 648.167969 598.117188 C 649.453125 597.21875 651.007812 596.144531 652.839844 594.878906 C 656.605469 592.28125 661.289062 589.050781 662.347656 588.171875 C 663.71875 587.027344 665.652344 586.859375 667.203125 587.753906 C 669.433594 589.035156 677.800781 593.984375 683.175781 597.316406 C 682.523438 594.6875 681.824219 591.824219 681.167969 589.113281 C 680.027344 584.40625 678.9375 579.964844 678.46875 578.332031 C 678.054688 576.898438 678.414062 575.359375 679.417969 574.261719 C 681.28125 572.222656 687.703125 566.664062 693.042969 562.21875 C 685.65625 561.34375 679.171875 560.304688 677.105469 559.960938 C 675.640625 559.714844 674.40625 558.730469 673.847656 557.363281 C 673.203125 555.800781 672.125 553.316406 670.859375 550.398438 C 669 546.128906 666.796875 541.054688 664.925781 536.492188 C 661.394531 544.066406 654.535156 558.304688 654.171875 559.046875 C 653.59375 560.25 652.472656 561.113281 651.152344 561.382812 C 650.75 561.460938 642.917969 563 635.847656 564.066406 Z M 645.28125 609.175781 C 644.050781 609.175781 642.816406 608.832031 641.710938 608.136719 C 639.28125 606.613281 638.132812 603.808594 638.777344 600.988281 C 639.277344 598.828125 639.992188 595.488281 640.738281 591.992188 C 641.800781 587.027344 642.640625 583.121094 643.261719 580.46875 C 641.101562 578.921875 638.15625 576.652344 634.445312 573.78125 C 631.601562 571.574219 628.914062 569.488281 627.308594 568.355469 C 624.976562 566.703125 623.917969 563.882812 624.605469 561.167969 C 625.292969 558.480469 627.558594 556.519531 630.371094 556.183594 C 635.882812 555.53125 643.707031 554.097656 647.40625 553.394531 C 650.0625 547.867188 657.578125 532.222656 658.882812 529.121094 C 659.945312 526.605469 662.441406 524.976562 665.101562 525.050781 C 667.859375 525.089844 670.285156 526.792969 671.292969 529.382812 C 673.328125 534.636719 676.300781 541.488281 678.699219 546.988281 C 679.503906 548.835938 680.234375 550.511719 680.824219 551.898438 C 684.574219 552.496094 691.363281 553.5 698.324219 554.199219 C 701.03125 554.472656 703.28125 556.335938 704.0625 558.9375 C 704.835938 561.535156 703.972656 564.324219 701.863281 566.027344 C 696.722656 570.195312 690.441406 575.589844 687.351562 578.457031 C 687.902344 580.644531 688.652344 583.71875 689.472656 587.097656 C 690.53125 591.457031 691.6875 596.207031 692.605469 599.746094 C 693.320312 602.496094 692.277344 605.324219 689.953125 606.941406 C 687.625 608.546875 684.613281 608.535156 682.277344 606.894531 C 680.042969 605.324219 670.5 599.59375 665.363281 596.574219 C 663.546875 597.871094 660.949219 599.667969 657.695312 601.914062 C 654.308594 604.25 650.46875 606.902344 649.511719 607.667969 C 648.257812 608.671875 646.769531 609.175781 645.28125 609.175781 " fill-opacity="1" fill-rule="nonzero"/><path fill="#edc547" d="M 643.261719 580.46875 C 643.019531 581.503906 642.734375 582.78125 642.425781 584.1875 C 645.742188 582.484375 649.046875 580.761719 652.34375 579.019531 C 652.515625 577.351562 651.75 575.695312 650.234375 574.851562 C 648.921875 574.125 645.207031 571.289062 641.828125 568.6875 C 639.039062 570.132812 636.253906 571.574219 633.464844 573.023438 L 634.445312 573.78125 C 638.15625 576.652344 641.101562 578.921875 643.261719 580.46875 " fill-opacity="1" fill-rule="nonzero"/><path fill="#edc547" d="M 677.105469 559.960938 C 678.386719 560.164062 681.351562 560.65625 685.164062 561.191406 C 689.390625 558.847656 693.605469 556.503906 697.808594 554.144531 C 691.035156 553.445312 684.484375 552.480469 680.824219 551.898438 C 680.484375 551.101562 680.085938 550.191406 679.671875 549.234375 C 677.128906 550.527344 674.574219 551.808594 672.039062 553.109375 C 672.78125 554.832031 673.421875 556.320312 673.847656 557.363281 C 674.40625 558.730469 675.640625 559.714844 677.105469 559.960938 " fill-opacity="1" fill-rule="nonzero"/><path fill="#edc547" d="M 702.351562 565.519531 C 703.742188 564.121094 704.425781 562.21875 704.246094 560.273438 C 696.125 564.824219 687.984375 569.351562 679.835938 573.84375 L 679.417969 574.261719 C 678.460938 575.304688 678.117188 576.761719 678.441406 578.132812 C 686.402344 573.914062 694.378906 569.714844 702.351562 565.519531 " fill-opacity="1" fill-rule="nonzero"/><path fill="#edc547" d="M 649.0625 593.960938 L 649.097656 593.777344 C 649.367188 592.507812 649.65625 591.171875 649.945312 589.839844 C 646.683594 591.523438 643.410156 593.1875 640.128906 594.835938 C 639.765625 596.535156 639.421875 598.117188 639.125 599.449219 C 642.429688 597.609375 645.742188 595.777344 649.0625 593.960938 " fill-opacity="1" fill-rule="nonzero"/><path fill="#feee96" d="M 658.441406 535.242188 C 660.484375 530.570312 662.757812 525.972656 668.539062 526.101562 C 667.527344 525.464844 666.355469 525.070312 665.101562 525.050781 C 662.441406 524.976562 659.945312 526.605469 658.882812 529.121094 C 657.578125 532.222656 650.0625 547.867188 647.40625 553.394531 C 643.707031 554.097656 635.882812 555.53125 630.371094 556.183594 C 627.777344 556.496094 625.714844 558.210938 624.855469 560.578125 C 629.941406 556.816406 635.847656 557.960938 649.363281 555.292969 C 651.160156 551.109375 655.460938 542.0625 658.441406 535.242188 " fill-opacity="1" fill-rule="nonzero"/><path fill="#feee96" d="M 681.550781 553.5625 C 690.355469 555.457031 700.976562 554.703125 704.132812 559.421875 L 704.0625 558.9375 C 703.28125 556.335938 701.03125 554.472656 698.324219 554.199219 C 691.617188 553.523438 684.652344 552.503906 680.824219 551.898438 C 681.089844 552.367188 681.320312 553.078125 681.550781 553.5625 " fill-opacity="1" fill-rule="nonzero"/><path fill="#d58c36" d="M 1274.628906 2.144531 C 1274.628906 42.386719 1272.875 190.566406 1272.875 305.414062 C 1272.875 361.375 1273.296875 409.398438 1274.527344 433.28125 C 1274.585938 434.339844 1275.488281 435.152344 1276.535156 435.089844 C 1277.589844 435.035156 1278.40625 434.140625 1278.347656 433.082031 C 1277.117188 409.386719 1276.699219 361.339844 1276.699219 305.414062 C 1276.699219 190.59375 1278.449219 42.449219 1278.449219 2.144531 C 1278.449219 1.09375 1277.589844 0.234375 1276.535156 0.234375 C 1275.488281 0.234375 1274.628906 1.09375 1274.628906 2.144531 " fill-opacity="1" fill-rule="nonzero"/><path fill="#d58c36" d="M 1275.386719 434.871094 L 1275.394531 434.871094 Z M 1247.914062 466.460938 C 1249.109375 467.371094 1250.417969 468.382812 1251.757812 469.425781 C 1255.535156 472.351562 1260.710938 476.359375 1262.3125 477.257812 C 1264.078125 478.234375 1264.910156 480.328125 1264.3125 482.257812 C 1263.792969 483.914062 1262.339844 490.710938 1261.167969 496.171875 C 1260.847656 497.675781 1260.527344 499.152344 1260.246094 500.519531 C 1261.527344 499.621094 1263.085938 498.539062 1264.921875 497.28125 C 1268.675781 494.679688 1273.359375 491.445312 1274.421875 490.5625 C 1275.792969 489.433594 1277.722656 489.261719 1279.273438 490.152344 C 1281.507812 491.429688 1289.871094 496.386719 1295.246094 499.714844 C 1294.597656 497.085938 1293.894531 494.226562 1293.238281 491.515625 C 1292.097656 486.800781 1291.011719 482.359375 1290.535156 480.726562 C 1290.128906 479.300781 1290.496094 477.753906 1291.488281 476.660156 C 1293.351562 474.625 1299.773438 469.058594 1305.117188 464.613281 C 1297.734375 463.746094 1291.246094 462.699219 1289.175781 462.355469 C 1287.714844 462.109375 1286.484375 461.128906 1285.921875 459.765625 C 1285.28125 458.203125 1284.199219 455.710938 1282.929688 452.789062 C 1281.074219 448.527344 1278.867188 443.460938 1276.996094 438.886719 C 1273.464844 446.464844 1266.609375 460.699219 1266.253906 461.441406 C 1265.664062 462.652344 1264.546875 463.519531 1263.222656 463.78125 C 1262.824219 463.863281 1254.988281 465.402344 1247.914062 466.460938 Z M 1257.351562 511.574219 C 1256.121094 511.574219 1254.894531 511.234375 1253.777344 510.539062 C 1251.355469 509.003906 1250.203125 506.203125 1250.851562 503.390625 C 1251.355469 501.230469 1252.0625 497.890625 1252.804688 494.386719 C 1253.871094 489.433594 1254.714844 485.515625 1255.335938 482.871094 C 1253.179688 481.324219 1250.234375 479.054688 1246.515625 476.175781 C 1243.671875 473.976562 1240.988281 471.894531 1239.382812 470.75 C 1237.042969 469.097656 1235.988281 466.285156 1236.679688 463.570312 C 1237.371094 460.875 1239.628906 458.914062 1242.433594 458.585938 C 1247.949219 457.925781 1255.777344 456.492188 1259.480469 455.796875 C 1262.128906 450.269531 1269.65625 434.628906 1270.964844 431.523438 C 1272.015625 429.003906 1274.511719 427.371094 1277.175781 427.445312 C 1279.929688 427.484375 1282.363281 429.195312 1283.367188 431.785156 C 1285.394531 437.039062 1288.382812 443.882812 1290.769531 449.390625 C 1291.574219 451.238281 1292.300781 452.90625 1292.902344 454.300781 C 1296.648438 454.890625 1303.4375 455.894531 1310.398438 456.601562 C 1313.097656 456.867188 1315.347656 458.730469 1316.136719 461.335938 C 1316.90625 463.9375 1316.050781 466.722656 1313.9375 468.429688 C 1308.804688 472.597656 1302.511719 477.992188 1299.421875 480.847656 C 1299.984375 483.046875 1300.726562 486.113281 1301.539062 489.492188 C 1302.605469 493.859375 1303.765625 498.609375 1304.675781 502.140625 C 1305.402344 504.898438 1304.355469 507.726562 1302.023438 509.335938 C 1299.707031 510.953125 1296.683594 510.9375 1294.347656 509.289062 C 1292.121094 507.71875 1282.570312 501.996094 1277.4375 498.972656 C 1275.621094 500.261719 1273.023438 502.066406 1269.773438 504.308594 C 1266.382812 506.652344 1262.539062 509.304688 1261.578125 510.070312 C 1260.332031 511.066406 1258.851562 511.574219 1257.351562 511.574219 " fill-opacity="1" fill-rule="nonzero"/><path fill="#edc547" d="M 1255.332031 482.871094 C 1255.089844 483.90625 1254.804688 485.179688 1254.496094 486.589844 C 1257.816406 484.878906 1261.117188 483.15625 1264.417969 481.417969 C 1264.585938 479.753906 1263.820312 478.097656 1262.308594 477.257812 C 1260.992188 476.519531 1257.273438 473.691406 1253.898438 471.082031 C 1251.113281 472.527344 1248.320312 473.96875 1245.535156 475.417969 L 1246.519531 476.175781 C 1250.230469 479.054688 1253.171875 481.324219 1255.332031 482.871094 " fill-opacity="1" fill-rule="nonzero"/><path fill="#edc547" d="M 1289.175781 462.355469 C 1290.453125 462.570312 1293.417969 463.050781 1297.242188 463.59375 C 1301.460938 461.25 1305.675781 458.898438 1309.886719 456.546875 C 1303.109375 455.847656 1296.554688 454.875 1292.902344 454.300781 C 1292.554688 453.507812 1292.160156 452.59375 1291.746094 451.628906 C 1289.195312 452.921875 1286.65625 454.210938 1284.113281 455.511719 C 1284.855469 457.234375 1285.492188 458.714844 1285.925781 459.765625 C 1286.484375 461.128906 1287.714844 462.109375 1289.175781 462.355469 " fill-opacity="1" fill-rule="nonzero"/><path fill="#edc547" d="M 1314.425781 467.917969 C 1315.8125 466.523438 1316.496094 464.621094 1316.328125 462.675781 C 1308.195312 467.21875 1300.066406 471.753906 1291.90625 476.242188 L 1291.492188 476.660156 C 1290.539062 477.707031 1290.191406 479.15625 1290.523438 480.527344 C 1298.476562 476.316406 1306.445312 472.117188 1314.425781 467.917969 " fill-opacity="1" fill-rule="nonzero"/><path fill="#edc547" d="M 1261.121094 496.359375 L 1261.164062 496.175781 C 1261.4375 494.914062 1261.71875 493.570312 1262.011719 492.246094 C 1258.75 493.929688 1255.472656 495.59375 1252.191406 497.242188 C 1251.835938 498.945312 1251.496094 500.511719 1251.195312 501.851562 C 1254.496094 500.007812 1257.8125 498.175781 1261.121094 496.359375 " fill-opacity="1" fill-rule="nonzero"/><path fill="#feee96" d="M 1270.515625 437.640625 C 1272.546875 432.976562 1274.824219 428.378906 1280.609375 428.507812 C 1279.589844 427.871094 1278.425781 427.464844 1277.167969 427.449219 C 1274.503906 427.375 1272.015625 429.007812 1270.953125 431.527344 C 1269.644531 434.628906 1262.128906 450.277344 1259.472656 455.796875 C 1255.777344 456.496094 1247.941406 457.929688 1242.433594 458.589844 C 1239.84375 458.894531 1237.78125 460.609375 1236.925781 462.984375 C 1242.003906 459.226562 1247.917969 460.367188 1261.429688 457.699219 C 1263.234375 453.515625 1267.519531 444.46875 1270.515625 437.640625 " fill-opacity="1" fill-rule="nonzero"/><path fill="#feee96" d="M 1293.609375 455.96875 C 1302.421875 457.859375 1313.039062 457.109375 1316.195312 461.824219 L 1316.125 461.339844 C 1315.347656 458.734375 1313.089844 456.871094 1310.386719 456.605469 C 1303.691406 455.929688 1296.71875 454.902344 1292.890625 454.304688 C 1293.152344 454.765625 1293.394531 455.476562 1293.609375 455.96875 " fill-opacity="1" fill-rule="nonzero"/><path stroke-linecap="butt" transform="matrix(0, 0.75, -0.75, 0, 518.801284, 142.787194)" fill="none" stroke-linejoin="miter" d="M 0.00249078 0.500671 L 443.070221 0.500671 " stroke="#d58c36" stroke-width="1" stroke-opacity="1" stroke-miterlimit="4"/></svg>